<svg xmlns="http://www.w3.org/2000/svg" xmlns:xlink="http://www.w3.org/1999/xlink" width="634.99951171875" height="333.09912109375" viewBox="0 0 634.99951171875 333.09912109375" fill="none">
<path d="M571.698 320.798C588.066 290.808 602.043 259.513 613.452 227.308C630.509 179.155 633.539 119.439 585.282 87.3222C558.04 69.1919 522.489 65.4272 492.888 51.6222C457.481 35.1094 423.158 14.8779 384.944 5.39119C332.874 -7.53556 275.071 3.18548 230.752 33.2421C188.979 61.5708 159.446 105.384 117.188 132.983C85.3114 153.802 45.0929 166.653 26.3457 199.79C9.95362 228.764 16.4716 270.564 40.8964 293.353C73.2775 323.565 121.892 318.42 162.554 318.635C222.739 318.953 282.923 319.271 343.108 319.589C395.825 319.868 448.542 320.147 501.259 320.426C507.353 320.458 568.883 325.949 571.698 320.798Z"   fill="#EFF6F8" >
</path>
<path d="M487.027 198.741C486.99 198.738 486.954 198.732 486.918 198.721C486.627 198.636 486.46 198.331 486.546 198.041C508.767 122.114 529.097 68.4765 543.793 47.0071C544.119 46.5304 544.355 46.1863 544.444 46.0122C544.583 45.7426 544.915 45.6376 545.183 45.7755C545.452 45.9144 545.558 46.2447 545.419 46.5141C545.299 46.7488 545.072 47.0795 544.698 47.6265C530.066 69.003 509.787 122.531 487.598 198.349C487.524 198.603 487.281 198.763 487.027 198.741Z"   fill="#2EC2D8" >
</path>
<path d="M554.122 43.0343C552.38 45.4446 543.557 49.9098 542.869 49.4128C542.181 48.9158 543.652 39.1373 545.393 36.727C547.135 34.3169 550.501 33.7751 552.911 35.5166C555.321 37.2584 555.863 40.6242 554.122 43.0343Z"   fill="#2EC2D8" >
</path>
<path d="M537.078 50.449C537.975 53.3561 536.19 63.3136 535.36 63.5693C534.531 63.8253 527.447 56.6026 526.551 53.6957C525.655 50.7886 527.284 47.7052 530.192 46.8086C533.098 45.912 536.182 47.5419 537.078 50.449Z"   fill="#2EC2D8" >
</path>
<path d="M547.763 67.7625C544.729 67.9811 535.429 64.0002 535.366 63.1339C535.304 62.2678 543.936 56.9931 546.97 56.7743C550.005 56.5553 552.642 58.8378 552.861 61.8719C553.08 64.9062 550.797 67.5434 547.763 67.7625Z"   fill="#2EC2D8" >
</path>
<path d="M511.433 100.853C513.455 105.542 512.278 122.481 510.94 123.058C509.601 123.635 496.475 112.864 494.452 108.175C492.431 103.486 494.593 98.0457 499.281 96.0237C503.97 94.0018 509.411 96.1636 511.433 100.853Z"   fill="#2EC2D8" >
</path>
<path d="M532.396 127.811C527.372 128.725 511.133 123.764 510.872 122.33C510.611 120.896 524.062 110.532 529.086 109.618C534.11 108.704 538.923 112.035 539.837 117.059C540.751 122.083 537.42 126.896 532.396 127.811Z"   fill="#2EC2D8" >
</path>
<path d="M498.298 119.894C501.975 124.947 505.132 145.485 503.69 146.535C502.248 147.584 483.677 138.262 480 133.209C476.324 128.156 477.439 121.079 482.492 117.403C487.545 113.726 494.621 114.842 498.298 119.894Z"   fill="#2EC2D8" >
</path>
<path d="M528.252 155.159C522.021 155.639 502.879 147.555 502.742 145.777C502.605 143.999 520.282 133.077 526.513 132.596C532.743 132.116 538.183 136.778 538.663 143.008C539.144 149.238 534.482 154.678 528.252 155.159Z"   fill="#2EC2D8" >
</path>
<path d="M490.263 144.66C493.94 149.713 497.097 170.251 495.655 171.3C494.213 172.35 475.642 163.027 471.965 157.974C468.289 152.922 469.404 145.845 474.457 142.168C479.51 138.492 486.586 139.607 490.263 144.66Z"   fill="#6094E8" >
</path>
<path d="M520.218 179.924C513.987 180.404 494.845 172.321 494.708 170.543C494.571 168.764 512.248 157.842 518.479 157.362C524.709 156.882 530.149 161.543 530.629 167.774C531.109 174.004 526.448 179.444 520.218 179.924Z"   fill="#2EC2D8" >
</path>
<path d="M472.479 175.836C477.802 179.108 488.545 196.895 487.612 198.414C486.678 199.934 465.956 198.388 460.632 195.116C455.308 191.845 453.644 184.877 456.915 179.553C460.187 174.229 467.155 172.565 472.479 175.836Z"   fill="#6094E8" >
</path>
<path d="M513.129 204.412C507.008 205.668 487.005 200.041 486.646 198.293C486.288 196.546 502.461 183.5 508.583 182.245C514.705 180.989 520.684 184.934 521.94 191.055C523.195 197.177 519.251 203.157 513.129 204.412Z"   fill="#6094E8" >
</path>
<path d="M529.17 66.1422C530.081 69.0957 528.267 79.2128 527.424 79.4728C526.581 79.7328 519.385 72.3945 518.474 69.4406C517.563 66.487 519.219 63.3543 522.172 62.4433C525.126 61.5326 528.259 63.1884 529.17 66.1422Z"   fill="#2EC2D8" >
</path>
<path d="M539.627 83.923C536.544 84.1455 527.095 80.1006 527.031 79.2206C526.968 78.3406 535.739 72.9814 538.822 72.7589C541.905 72.5366 544.584 74.8554 544.806 77.9384C545.029 81.0212 542.71 83.7006 539.627 83.923Z"   fill="#2EC2D8" >
</path>
<path d="M520.118 80.729C521.751 84.805 520.363 99.3411 519.199 99.8076C518.036 100.274 506.991 90.7219 505.357 86.6459C503.723 82.5699 505.703 77.9413 509.779 76.3073C513.855 74.6736 518.483 76.653 520.118 80.729Z"   fill="#2EC2D8" >
</path>
<path d="M536.962 105.993C532.582 106.309 519.158 100.562 519.068 99.3122C518.978 98.0621 531.438 90.4482 535.818 90.1323C540.198 89.8163 544.004 93.1108 544.32 97.4906C544.636 101.871 541.342 105.677 536.962 105.993Z"   fill="#2EC2D8" >
</path>
<ellipse cx="312.657470703125" cy="319.27900218963623" rx="312.144775390625" ry="13.82001781463623"   fill="#49A0BB" >
</ellipse>
<path d="M187.986 254.998C187.986 254.998 66.6115 280.13 58.541 66.5645C58.541 66.5645 265.815 140.672 187.986 254.998Z"   fill="#B9E2EF" >
</path>
<path d="M58.2939 66.2148L172.366 255.476C139.441 254.045 64.5733 232.382 58.2939 66.2148Z"   fill="#49A0BB" >
</path>
<path d="M167.549 248.045C167.359 248.045 167.174 247.949 167.068 247.773L57.8141 66.5046C57.6541 66.2394 57.7395 65.8941 58.0047 65.7339C58.2705 65.5761 58.6152 65.6594 58.7751 65.9258L168.03 247.195C168.189 247.46 168.104 247.805 167.838 247.965C167.748 248.019 167.648 248.045 167.549 248.045Z"   fill="#0D3039" >
</path>
<path d="M115.331 161.407C115.295 161.407 115.259 161.403 115.223 161.397C114.918 161.337 114.72 161.043 114.779 160.738L126.028 103.032C126.089 102.727 126.385 102.531 126.687 102.588C126.992 102.648 127.19 102.942 127.131 103.247L115.882 160.953C115.829 161.22 115.595 161.407 115.331 161.407Z"   fill="#0D3039" >
</path>
<path d="M138.733 200.236C138.637 200.236 138.54 200.212 138.451 200.16L88.5554 171.154C88.2868 170.999 88.1957 170.654 88.3513 170.387C88.507 170.117 88.8511 170.029 89.1187 170.183L139.015 199.189C139.283 199.345 139.374 199.689 139.219 199.957C139.115 200.136 138.926 200.236 138.733 200.236Z"   fill="#0D3039" >
</path>
<path d="M474.905 274.221C474.905 274.221 445.411 168.356 633.851 148.441C633.851 148.441 580.695 336.23 474.905 274.221Z"   fill="#49A0BB" >
</path>
<path d="M634.147 148.201L473.548 260.432C472.845 231.221 487.53 163.696 634.147 148.201Z"   fill="#B9E2EF" >
</path>
<path d="M479.834 255.726C479.823 255.558 479.897 255.388 480.046 255.284L633.862 147.793C634.087 147.635 634.398 147.691 634.555 147.915C634.711 148.141 634.658 148.451 634.432 148.609L480.615 256.1C480.39 256.257 480.08 256.202 479.922 255.977C479.869 255.901 479.84 255.813 479.834 255.726Z"   fill="#0D3039" >
</path>
<path d="M553.352 204.351C553.35 204.319 553.351 204.286 553.354 204.254C553.389 203.981 553.637 203.788 553.91 203.822L605.631 210.322C605.904 210.357 606.095 210.607 606.062 210.878C606.028 211.151 605.78 211.344 605.507 211.31L553.786 204.81C553.546 204.78 553.367 204.583 553.352 204.351Z"   fill="#0D3039" >
</path>
<path d="M520.403 227.376C520.397 227.291 520.412 227.204 520.452 227.122L543.127 181.249C543.248 181.002 543.547 180.9 543.793 181.022C544.041 181.144 544.14 181.443 544.019 181.689L521.345 227.562C521.224 227.809 520.925 227.911 520.678 227.789C520.513 227.708 520.414 227.547 520.403 227.376Z"   fill="#0D3039" >
</path>
<path d="M508.018 297.246C508.018 297.246 517.842 226.697 634.998 263.556C634.998 263.556 554.875 361.442 508.018 297.246Z" fill-rule="evenodd"  fill="#2EC2D8" >
</path>
<path d="M635 263.559L508.018 297.248C508.018 297.248 543.238 365.258 635 263.559Z"   fill="#EFF6F8" >
</path>
<path d="M601.982 285.311C601.964 285.31 601.947 285.307 601.929 285.304L572.184 279.453C571.958 279.409 571.812 279.191 571.856 278.966C571.901 278.74 572.122 278.596 572.344 278.638L602.089 284.488C602.315 284.533 602.462 284.751 602.417 284.976C602.376 285.184 602.187 285.324 601.982 285.311Z"   fill="#2EC2D8" >
</path>
<path d="M559.962 305.709C559.931 305.706 559.9 305.701 559.868 305.691L521.48 294.04C521.261 293.974 521.137 293.742 521.204 293.522C521.27 293.303 521.5 293.177 521.722 293.245L560.11 304.896C560.329 304.963 560.454 305.195 560.387 305.414C560.33 305.603 560.15 305.721 559.962 305.709Z"   fill="#2EC2D8" >
</path>
<path d="M186.033 275.438C186.033 275.438 171.636 175.396 0 227.665C0 227.665 117.386 366.472 186.033 275.438Z"   fill="#2EC2D8" >
</path>
<path d="M0 227.664L186.033 275.437C186.033 275.437 134.433 371.879 0 227.664Z"   fill="#B9E2EF" >
</path>
<path d="M48.371 258.512C48.3972 258.51 48.4232 258.507 48.4491 258.502L92.0263 250.205C92.3568 250.143 92.5713 249.833 92.5065 249.514C92.4414 249.194 92.1178 248.99 91.7916 249.049L48.2142 257.346C47.8839 257.409 47.669 257.718 47.7344 258.038C47.7938 258.332 48.071 258.531 48.371 258.512Z"   fill="#2EC2D8" >
</path>
<path d="M109.935 287.437C109.98 287.433 110.026 287.426 110.071 287.412L166.311 270.89C166.632 270.796 166.815 270.466 166.717 270.156C166.619 269.845 166.283 269.666 165.957 269.763L109.717 286.285C109.396 286.379 109.214 286.709 109.312 287.019C109.395 287.287 109.658 287.454 109.935 287.437Z"   fill="#2EC2D8" >
</path>
<path     fill="#FFFFFF"  d="M404.959 118.006L522.15 118.006C522.993 118.006 523.676 118.689 523.676 119.532L523.676 318.813C523.676 319.656 522.993 320.339 522.15 320.339L404.959 320.339C404.116 320.339 403.433 319.656 403.433 318.813L403.433 119.532C403.433 118.689 404.116 118.006 404.959 118.006Z">
</path>
<path d="M514.97 322.585L412.139 322.585C406.101 322.585 401.188 317.672 401.188 311.633L401.188 126.712C401.188 120.674 406.101 115.762 412.139 115.762L514.97 115.762C521.009 115.762 525.922 120.674 525.922 126.712L525.922 311.633C525.922 317.672 521.009 322.585 514.97 322.585ZM412.139 120.251C408.576 120.251 405.678 123.149 405.678 126.712L405.678 311.633C405.678 315.197 408.576 318.096 412.139 318.096L514.97 318.096C518.533 318.096 521.432 315.197 521.432 311.633L521.432 126.712C521.432 123.149 518.533 120.251 514.97 120.251L412.139 120.251Z"   fill="#0D3039" >
</path>
<path     fill="#0D3039"  d="M403.433 303.271L523.676 303.271L523.676 312.023C523.676 316.615 519.953 320.338 515.361 320.338L411.748 320.338C407.156 320.338 403.433 316.615 403.433 312.023L403.433 303.271Z">
</path>
<path d="M309.276 175.713L118.975 175.713L149.681 305.813L339.983 305.813L309.276 175.713Z"   fill="#FFFFFF" >
</path>
<path d="M339.982 308.619L149.681 308.619C148.38 308.619 147.249 307.725 146.95 306.458L116.244 176.359C116.047 175.524 116.243 174.646 116.775 173.973C117.307 173.301 118.118 172.908 118.975 172.908L309.275 172.908C310.576 172.908 311.707 173.803 312.007 175.07L342.714 305.169C342.91 306.003 342.715 306.882 342.182 307.555C341.651 308.227 340.84 308.619 339.982 308.619ZM151.901 303.007L336.437 303.007L307.055 178.52L122.521 178.52L151.901 303.007Z"   fill="#235460" >
</path>
<g mask="url(#mask-0_1823)">
<path d="M429.099 283.26L427.177 303.272C427.177 303.272 492.286 303.924 492.219 303.272C492.152 302.62 490.252 272.744 490.252 272.744L429.099 283.26Z"   fill="#235460" >
</path>
</g>
<g mask="url(#mask-0_1823)">
<path d="M388.847 230.741C388.847 230.741 388.759 223.083 388.113 220.324C387.468 217.563 388.892 214.41 387.259 214.224C385.626 214.038 384.668 219.407 384.668 219.407C384.668 219.407 380.942 215.005 380.003 213.479C379.063 211.952 376.689 209.65 375.519 210.25C374.348 210.85 379.374 217.868 379.374 217.868C379.374 217.868 374.562 212.375 373.363 212.698C372.165 213.022 377.261 220.911 377.261 220.911C377.261 220.911 372.414 214.8 371.616 214.653C370.818 214.506 370.597 215.521 371.788 218.101C372.979 220.682 374.86 223.009 374.86 223.009C374.86 223.009 371.133 218.971 370.517 218.642C369.9 218.314 368.812 218.311 370.979 221.946C373.147 225.581 379.116 232.674 383.537 235.009L388.847 230.741Z"   fill="#56300D" >
</path>
</g>
<g mask="url(#mask-0_1823)">
<path d="M464.157 293.51C464.157 293.51 456.665 294.364 454.027 295.273C451.388 296.182 448.157 295.104 448.139 296.722C448.12 298.339 453.475 298.739 453.475 298.739C453.475 298.739 449.537 302.83 448.136 303.903C446.735 304.977 444.718 307.533 445.424 308.619C446.129 309.705 452.499 304.079 452.499 304.079C452.499 304.079 447.601 309.343 448.038 310.484C448.475 311.626 455.691 305.844 455.691 305.844C455.691 305.844 450.192 311.203 450.128 312C450.063 312.796 451.08 312.91 453.488 311.485C455.895 310.061 457.986 307.985 457.986 307.985C457.986 307.985 454.405 312.04 454.145 312.677C453.885 313.313 453.992 314.38 457.335 311.892C460.677 309.405 467.026 302.847 468.87 298.283L464.157 293.51Z"   fill="#56300D" >
</path>
</g>
<g mask="url(#mask-0_1823)">
<path d="M466.181 185.176C466.181 185.176 491.536 192.465 498.282 200.665C505.028 208.865 513.228 249.955 510.95 260.845C508.672 271.734 470.86 302.713 470.86 302.713L458.56 292.58L463.571 283.26C463.571 283.26 442.463 288.105 429.099 283.26L429.707 257.848C429.707 257.848 423.936 269.304 411.18 269.304C398.424 269.304 380.505 235.009 380.505 235.009L389.92 227.695C389.92 227.695 402.559 239.99 411.046 242.291C412.86 242.782 414.731 241.736 415.216 239.921C417.579 231.066 425.546 202.748 432.44 196.109C440.64 188.213 466.181 185.176 466.181 185.176Z"   fill="#49A0BB" >
</path>
</g>
<g mask="url(#mask-0_1823)">
<path d="M429.707 258.006C429.792 258.006 429.862 257.939 429.865 257.853L430.472 239.849C430.473 239.821 430.466 239.792 430.452 239.767C430.421 239.71 427.283 233.964 427.283 228.303C427.283 222.663 433.552 216.329 433.615 216.266C433.677 216.204 433.677 216.104 433.615 216.043C433.553 215.981 433.453 215.981 433.391 216.043C433.327 216.107 426.967 222.533 426.967 228.303C426.967 233.8 429.876 239.362 430.155 239.882L429.548 257.843C429.545 257.93 429.614 258.003 429.701 258.006L429.707 258.006Z"   fill="#0D3039" >
</path>
</g>
<g mask="url(#mask-0_1823)">
<path d="M463.57 283.419C463.62 283.419 463.669 283.395 463.699 283.352L482.1 257.213C482.934 256.029 483.323 254.583 483.195 253.141L480.356 221.152C480.349 221.065 480.278 221.001 480.184 221.008C480.097 221.016 480.033 221.093 480.04 221.18L482.879 253.169C483.001 254.537 482.632 255.908 481.842 257.031L463.441 283.17C463.39 283.241 463.408 283.34 463.48 283.39C463.507 283.409 463.539 283.419 463.57 283.419Z"   fill="#0D3039" >
</path>
</g>
<g mask="url(#mask-0_1823)">
<path d="M452.717 168.373C452.039 168.234 439.248 161.248 444.474 144.594C449.7 127.941 465.017 129.535 472.434 132.238C479.85 134.94 490.644 148.984 482.51 160.854C474.374 172.725 466.667 176.191 466.667 176.191L452.717 168.373Z"   fill="#0D3039" >
</path>
</g>
<g mask="url(#mask-0_1823)">
<path d="M445.142 157.802C445.142 157.802 443.804 155.638 442.667 156.466C439.771 158.578 442.74 161.592 444.607 162.28L445.142 157.802Z"   fill="#56300D" >
</path>
</g>
<g mask="url(#mask-0_1823)">
<path d="M463.761 132.626C472.404 133.461 479.165 140.763 479.352 149.445C479.414 152.299 478.783 154.987 477.629 157.369C475.057 163.313 472.935 168.101 470.374 171.555C467.779 175.056 466.507 179.362 466.988 183.693L467.474 188.067C457.261 192.781 452.992 188.45 452.992 188.45L453.333 177.559C442.497 175.922 444.573 155.895 444.758 149.962L444.775 149.965C444.774 149.743 444.772 149.52 444.779 149.295C445.09 139.366 453.712 131.654 463.761 132.626Z"   fill="#56300D" >
</path>
</g>
<g mask="url(#mask-0_1823)">
<path d="M464.451 150.253C466.5 152.474 468.266 154.936 470.027 157.391C471.89 159.989 473.816 162.746 474.151 165.925C477.021 163.882 478.917 160.757 480.529 157.624C481.277 156.171 481.99 154.672 482.272 153.063C482.67 150.783 482.18 148.452 481.691 146.191C481.061 143.271 480.372 140.229 478.47 137.927C477.21 136.402 475.5 135.313 473.733 134.425C469.609 132.354 464.933 131.243 460.344 131.738C455.756 132.232 451.283 134.424 448.441 138.06C444.781 142.743 444.193 149.053 443.747 154.979C444.421 152.535 446.114 150.521 447.76 148.593C448.831 147.338 449.93 146.06 451.354 145.227C453.782 143.807 454.437 144.154 458.7 141.455C459.675 145.147 461.888 147.475 464.451 150.253Z"   fill="#0D3039" >
</path>
</g>
<g mask="url(#mask-0_1823)">
<path d="M447.322 157.905C447.267 157.073 447.897 156.355 448.729 156.3C449.561 156.246 450.279 156.876 450.333 157.708C450.388 158.539 449.758 159.258 448.926 159.312C448.094 159.367 447.376 158.736 447.322 157.905Z"   fill="#0D3039" >
</path>
</g>
<g mask="url(#mask-0_1823)">
<path d="M462.187 160.096C462.132 159.264 462.762 158.546 463.594 158.492C464.426 158.437 465.144 159.067 465.199 159.899C465.253 160.731 464.623 161.449 463.792 161.503C462.96 161.558 462.241 160.928 462.187 160.096Z"   fill="#0D3039" >
</path>
</g>
<g mask="url(#mask-0_1823)">
<path d="M449.93 167.736C449.93 167.736 452.046 166.64 452.796 166.918C453.544 167.197 453.887 168.162 453.887 168.162C453.887 168.162 454.426 167.275 455.362 167.342C456.298 167.409 459.266 169.44 459.266 169.44C459.266 169.44 455.983 173.166 453.197 172.406C450.359 171.631 449.93 167.736 449.93 167.736Z"   fill="#DC4E4A" >
</path>
</g>
<g mask="url(#mask-0_1823)">
<path d="M466.766 158.665C466.946 158.671 467.127 158.599 467.255 158.455C467.485 158.195 467.462 157.799 467.203 157.569C467.125 157.5 465.253 155.885 462.445 155.92C462.099 155.924 461.821 156.209 461.825 156.555C461.829 156.902 462.143 157.185 462.46 157.175C464.799 157.148 466.354 158.494 466.369 158.508C466.484 158.609 466.625 158.661 466.766 158.665Z"   fill="#0D3039" >
</path>
</g>
<g mask="url(#mask-0_1823)">
<path d="M451.587 155.823C451.762 155.778 451.915 155.659 451.998 155.485C452.147 155.172 452.014 154.798 451.7 154.649C451.607 154.604 449.384 153.568 446.674 154.391C446.341 154.492 446.154 154.842 446.255 155.174C446.354 155.506 446.718 155.693 447.037 155.593C449.279 154.911 451.143 155.774 451.162 155.782C451.301 155.848 451.45 155.858 451.587 155.823Z"   fill="#0D3039" >
</path>
</g>
<g mask="url(#mask-0_1823)">
<path d="M455.218 165.63C453.444 165.304 452.893 163.945 452.862 163.171C452.856 163.036 452.903 162.904 452.992 162.802C454.654 160.901 454.578 158.038 454.576 158.009C454.567 157.718 454.795 157.474 455.086 157.463C455.373 157.452 455.621 157.68 455.632 157.972C455.637 158.102 455.724 161.102 453.944 163.311C454.035 163.73 454.435 164.675 456.132 164.645C456.429 164.642 456.665 164.872 456.67 165.163C456.675 165.455 456.443 165.696 456.151 165.702C455.808 165.708 455.497 165.682 455.218 165.63Z"   fill="#724000" >
</path>
</g>
<g mask="url(#mask-0_1823)">
<path d="M459.266 169.441C459.266 169.441 453.547 168.708 449.93 167.736C449.93 167.736 451.374 170.793 453.564 170.996C455.756 171.199 459.266 169.441 459.266 169.441Z"   fill="#FED7C9" >
</path>
</g>
<g mask="url(#mask-0_1823)">
<path d="M462.647 165.139C461.301 164.843 460.152 164.04 459.411 162.879C458.669 161.718 458.424 160.338 458.72 158.993C459.332 156.216 462.09 154.456 464.866 155.066C467.643 155.678 469.405 158.435 468.793 161.212C468.497 162.557 467.694 163.707 466.533 164.448C465.694 164.985 464.739 165.261 463.767 165.261C463.395 165.261 463.019 165.221 462.647 165.139ZM459.029 159.061C458.75 160.324 458.981 161.619 459.677 162.709C460.373 163.798 461.452 164.552 462.715 164.83C463.979 165.108 465.274 164.878 466.363 164.182C467.453 163.486 468.206 162.407 468.484 161.144C469.058 158.537 467.404 155.949 464.798 155.375C464.448 155.298 464.1 155.261 463.756 155.261C461.534 155.261 459.526 156.804 459.029 159.061Z"   fill="#B9E2EF" >
</path>
</g>
<g mask="url(#mask-0_1823)">
<path d="M447.785 162.538C446.439 162.242 445.29 161.439 444.548 160.278C443.807 159.117 443.562 157.737 443.858 156.392C444.154 155.047 444.957 153.897 446.118 153.155C447.279 152.414 448.658 152.167 450.003 152.465C452.781 153.077 454.542 155.834 453.93 158.611C453.634 159.956 452.832 161.105 451.671 161.847C450.831 162.384 449.877 162.66 448.904 162.66C448.532 162.66 448.156 162.62 447.785 162.538ZM446.288 153.422C445.198 154.118 444.445 155.197 444.167 156.46C443.888 157.722 444.119 159.018 444.814 160.107C445.511 161.197 446.59 161.95 447.853 162.229C450.458 162.804 453.047 161.15 453.622 158.543C454.195 155.936 452.542 153.348 449.936 152.774C449.586 152.697 449.234 152.659 448.885 152.659C447.971 152.659 447.076 152.919 446.288 153.422Z"   fill="#B9E2EF" >
</path>
</g>
<g mask="url(#mask-0_1823)">
<path d="M474.961 161.457L474.994 161.142L468.772 160.494L468.738 160.809L474.961 161.457Z"   fill="#B9E2EF" >
</path>
</g>
<g mask="url(#mask-0_1823)">
<path d="M458.671 159.797L458.881 159.561C456.185 157.154 453.688 158.571 453.662 158.585L453.822 158.858C453.916 158.803 456.151 157.549 458.671 159.797Z"   fill="#B9E2EF" >
</path>
</g>
<g mask="url(#mask-0_1823)">
<path d="M472.204 162.049C472.501 161.499 473.001 161.088 473.588 160.872C474.797 160.428 476.918 159.968 478.32 161.461C480.376 163.65 475.929 169.145 471.795 166.215C471.795 166.215 470.627 164.972 472.204 162.049Z"   fill="#56300D" >
</path>
</g>
<g mask="url(#mask-0_1823)">
<path d="M470.957 134.042C472.218 128.318 477.88 124.701 483.603 125.962C489.326 127.223 492.944 132.885 491.683 138.608C490.422 144.331 484.76 147.949 479.037 146.688C473.313 145.427 469.696 139.765 470.957 134.042Z"   fill="#0D3039" >
</path>
</g>
<g mask="url(#mask-0_1823)">
<path d="M252.34 222.545C252.34 222.545 275.511 223.902 281.281 231.369C287.05 238.835 296.908 252.41 300.641 260.216C304.374 268.022 317.78 283.181 304.544 295.398C291.308 307.616 275.854 281.538 275.854 281.538L271.461 303.904L208.329 303.091L200.863 289.742C200.863 289.742 181.858 303.317 172.355 289.742C162.852 276.167 166.246 259.537 177.785 252.41C189.324 245.283 203.578 226.278 213.42 223.902C223.262 221.527 242.147 220.371 252.34 222.545Z"   fill="#2EC2D8" >
</path>
</g>
<g mask="url(#mask-0_1823)">
<path d="M200.862 289.978C200.797 289.978 200.731 289.95 200.685 289.897C200.599 289.799 200.609 289.65 200.708 289.565C200.863 289.429 216.355 275.941 220.703 270.589C224.738 265.622 218.08 254.56 217.315 253.328C215.263 253.383 190.211 254.264 178.962 264.463C178.864 264.551 178.716 264.543 178.628 264.447C178.541 264.351 178.548 264.202 178.645 264.115C190.452 253.408 217.171 252.858 217.44 252.854C217.505 252.85 217.598 252.893 217.642 252.962C217.967 253.467 225.537 265.386 221.069 270.886C216.695 276.27 201.174 289.784 201.017 289.92C200.973 289.959 200.918 289.978 200.862 289.978Z"   fill="#0D3039" >
</path>
</g>
<g mask="url(#mask-0_1823)">
<path d="M226.909 219.762L224.237 221.243L239.726 249.182L243.502 252.842L242.398 247.701L226.909 219.762Z"   fill="#0D3039" >
</path>
</g>
<g mask="url(#mask-0_1823)">
<path d="M239.726 249.18L242.375 251.748L243.172 251.307L242.397 247.699L239.726 249.18Z"   fill="#B9E2EF" >
</path>
</g>
<g mask="url(#mask-0_1823)">
<path d="M304.544 273.959C304.485 273.959 304.426 273.937 304.381 273.893C304.281 273.797 294.148 264.325 279.876 271.625C279.759 271.685 279.618 271.639 279.559 271.523C279.5 271.407 279.546 271.265 279.661 271.206C294.236 263.749 304.604 273.453 304.707 273.553C304.801 273.643 304.804 273.792 304.714 273.886C304.667 273.935 304.605 273.959 304.544 273.959Z"   fill="#0D3039" >
</path>
</g>
<g mask="url(#mask-0_1823)">
<path d="M218.417 254.746C218.417 254.746 223.036 242.454 225.977 241.323C228.918 240.191 242.946 237.703 243.172 240.191C243.398 242.68 235.932 242.907 235.932 242.907C235.932 242.907 239.326 244.49 238.647 246.187C237.968 247.884 237.403 247.884 237.403 247.884C237.403 247.884 239.552 247.432 239.552 248.789C239.552 250.146 238.421 251.278 238.421 251.278C238.421 251.278 240.57 252.07 239.439 253.654C238.308 255.237 233.783 255.916 232.651 257.16C231.52 258.405 229.031 262.025 227.674 262.251C226.316 262.477 223.262 262.251 223.262 262.251L218.417 254.746Z"   fill="#FEC1A4" >
</path>
</g>
<g mask="url(#mask-0_1823)">
<path d="M253.466 257.225L286.243 248.34C287.973 247.871 289.615 249.33 289.353 251.103L283.273 292.192C283.15 293.023 282.616 293.735 281.853 294.086L255.264 306.313C252.486 307.591 249.245 307.35 246.686 305.676L218.489 287.225C217.799 286.774 217.377 286.01 217.364 285.185L216.704 244.438C216.674 242.557 218.662 241.326 220.332 242.19L248.345 256.679C249.923 257.496 251.751 257.69 253.466 257.225Z"   fill="#DC4E4A" >
</path>
</g>
<g mask="url(#mask-0_1823)">
<path d="M255.39 256.67L253.466 257.191C251.75 257.656 249.923 257.461 248.344 256.645L246.792 255.842L246.792 305.701C249.335 307.316 252.523 307.539 255.264 306.279L255.39 306.221L255.39 256.67Z"   fill="#C43932" >
</path>
</g>
<g mask="url(#mask-0_1823)">
<path d="M287.153 277.586C287.153 277.586 282.333 270.186 279.998 267.898C277.662 265.611 277.099 261.661 275.394 262.489C273.69 263.318 276.077 269.136 276.077 269.136C276.077 269.136 269.728 267.156 267.87 266.25C266.011 265.345 262.277 264.572 261.509 265.88C260.74 267.188 269.972 270.912 269.972 270.912C269.972 270.912 261.891 268.54 260.924 269.596C259.957 270.652 269.796 275.181 269.796 275.181C269.796 275.181 261.3 272.229 260.432 272.579C259.564 272.929 259.977 274.054 262.732 275.83C265.486 277.605 268.756 278.708 268.756 278.708C268.756 278.708 262.631 277.081 261.828 277.143C261.025 277.204 259.964 277.874 264.321 280.073C268.679 282.271 278.875 285.485 284.623 285.024C284.623 285.024 286.321 285.381 287.639 281.724C288.756 278.623 287.153 277.586 287.153 277.586Z"   fill="#FEC1A4" >
</path>
</g>
<g mask="url(#mask-0_1823)">
<path d="M271.703 203.209C271.703 203.209 273.692 201.453 274.577 202.623C276.833 205.604 273.217 207.69 271.146 207.813L271.703 203.209Z"   fill="#FEC1A4" >
</path>
</g>
<g mask="url(#mask-0_1823)">
<path d="M274.45 195.5L274.432 195.499C274.501 195.277 274.57 195.055 274.63 194.829C277.317 184.818 271.03 174.514 260.697 172.457C252.088 170.743 243.361 175.618 240.311 183.849C239.179 186.905 238.928 190.029 239.398 192.979C239.919 197.487 240.404 201.354 241.13 204.656C242.331 210.116 241.645 215.822 239.316 220.904L237.484 224.902C246.659 233.473 252.965 229.484 252.965 229.484L255.223 221.85C255.518 220.854 256.527 220.259 257.546 220.463C257.552 220.464 257.558 220.466 257.564 220.467C271.071 223.163 272.846 201.48 274.45 195.5Z"   fill="#FEC1A4" >
</path>
</g>
<g mask="url(#mask-0_1823)">
<path d="M269.058 201.453C269.246 200.753 268.831 200.034 268.132 199.846C267.432 199.658 266.713 200.073 266.525 200.773C266.337 201.473 266.752 202.192 267.452 202.38C268.151 202.568 268.871 202.152 269.058 201.453Z"   fill="#0D3039" >
</path>
</g>
<g mask="url(#mask-0_1823)">
<path d="M253.005 200.541C253.194 199.841 252.778 199.122 252.079 198.934C251.379 198.746 250.66 199.161 250.472 199.861C250.284 200.56 250.699 201.28 251.399 201.468C252.099 201.656 252.818 201.241 253.005 200.541Z"   fill="#0D3039" >
</path>
</g>
<g mask="url(#mask-0_1823)">
<path d="M248.921 195.739C248.755 195.694 248.598 195.606 248.47 195.473C248.092 195.082 248.103 194.459 248.494 194.082C249.672 192.944 252.728 191.528 255.871 194.317C256.278 194.677 256.315 195.299 255.954 195.705C255.594 196.112 254.971 196.148 254.565 195.788C251.985 193.497 249.946 195.414 249.861 195.497C249.603 195.746 249.245 195.826 248.921 195.739Z"   fill="#56300D" >
</path>
</g>
<g mask="url(#mask-0_1823)">
<path d="M264.804 197.284C264.637 197.24 264.48 197.151 264.352 197.018C263.975 196.627 263.985 196.004 264.376 195.627C265.554 194.489 268.611 193.073 271.754 195.861C272.16 196.222 272.197 196.844 271.837 197.25C271.476 197.656 270.854 197.694 270.448 197.333C267.867 195.042 265.829 196.959 265.743 197.042C265.486 197.291 265.127 197.371 264.804 197.284Z"   fill="#56300D" >
</path>
</g>
<g mask="url(#mask-0_1823)">
<path d="M261.192 213.112C257.574 213.818 254.313 210.721 254.273 210.682C254.156 210.569 254.154 210.384 254.266 210.269C254.376 210.153 254.562 210.149 254.679 210.262C254.869 210.446 259.394 214.734 263.499 211.359C263.622 211.257 263.807 211.274 263.909 211.399C264.012 211.523 263.994 211.708 263.869 211.81C262.984 212.539 262.077 212.939 261.192 213.112Z"   fill="#0D3039" >
</path>
</g>
<g mask="url(#mask-0_1823)">
<path d="M241.246 173.105C241.887 172.217 242.571 171.345 243.427 170.662C245.532 168.982 248.421 168.64 251.104 168.871C253.787 169.102 256.409 169.835 259.094 170.041C261.813 170.251 264.642 169.931 267.193 170.893C267.755 171.105 268.306 171.385 268.716 171.823C269.135 172.269 269.379 172.846 269.71 173.359C271.094 175.5 273.789 176.298 276.257 176.937C277.683 177.306 279.109 177.676 280.535 178.045C281.752 178.36 283.052 178.726 283.858 179.691C284.761 180.773 284.803 182.304 284.898 183.709C284.993 185.115 285.284 186.685 286.445 187.482C286.842 187.755 287.354 187.958 287.51 188.414C287.586 188.636 287.559 188.878 287.51 189.107C287.094 191.066 284.974 192.494 283.002 192.143C282.511 192.056 282.03 191.875 281.531 191.888C279.728 191.936 278.936 194.278 277.319 195.078C276.324 195.57 275.116 195.408 274.094 194.975C273.072 194.541 272.178 193.862 271.226 193.292C270.088 192.611 268.86 192.083 267.585 191.726C266.681 191.473 265.722 191.306 264.807 191.512C264.326 191.619 263.873 191.827 263.393 191.938C261.723 192.326 259.997 191.501 258.667 190.419C257.338 189.336 256.238 187.978 254.832 186.999C253.424 186.019 251.534 185.461 249.993 186.213C249.108 186.645 248.463 187.444 247.653 188.005C245.52 189.486 242.659 189.112 240.099 188.677C239.569 188.587 239.004 188.479 238.621 188.102C238.35 187.834 238.209 187.465 238.096 187.101C236.662 182.477 238.539 176.856 241.246 173.105Z"   fill="#56300D" >
</path>
</g>
<g mask="url(#mask-0_1823)">
<path d="M237.945 186.55L239.474 199.314L242.811 199.531L248.791 184.838L237.945 186.55Z"   fill="#56300D" >
</path>
</g>
<g mask="url(#mask-0_1823)">
<path d="M243.403 199.289C243.272 198.65 242.897 198.088 242.376 197.696C241.303 196.888 239.325 195.789 237.475 196.856C234.761 198.422 237.543 205.249 242.554 203.571C242.554 203.571 244.096 202.682 243.403 199.289Z"   fill="#FEC1A4" >
</path>
</g>
<g mask="url(#mask-0_1823)">
<path d="M260.808 207.936C259.046 208.28 257.887 207.068 257.873 207.053C257.764 206.936 257.77 206.752 257.887 206.642C258.004 206.532 258.189 206.538 258.3 206.654C258.354 206.712 259.651 208.041 261.574 207.05C261.888 206.888 262.069 206.737 262.111 206.601C262.172 206.41 262.007 206.098 261.779 205.666C261.256 204.673 260.379 203.011 260.799 199.902C260.822 199.741 260.969 199.63 261.128 199.651C261.288 199.673 261.4 199.82 261.378 199.98C260.982 202.904 261.773 204.403 262.296 205.394C262.579 205.93 262.802 206.353 262.669 206.777C262.574 207.079 262.319 207.323 261.842 207.568C261.479 207.756 261.133 207.872 260.808 207.936Z"   fill="#F9A52D" >
</path>
</g>
<path d="M123.545 319.344C123.562 319.346 123.581 319.345 123.599 319.343C123.746 319.325 123.851 319.191 123.832 319.044C119.067 280.603 113.462 253.081 108.05 241.55C107.929 241.294 107.843 241.109 107.813 241.017C107.767 240.876 107.615 240.8 107.475 240.845C107.334 240.891 107.256 241.042 107.302 241.183C107.342 241.307 107.425 241.484 107.563 241.778C112.953 253.26 118.541 280.724 123.299 319.11C123.315 319.239 123.42 319.335 123.545 319.344Z"   fill="#0D3039" >
</path>
<path d="M103.37 238.816C104.022 240.118 107.934 242.97 108.306 242.784C108.677 242.597 108.736 237.756 108.084 236.454C107.432 235.152 105.848 234.626 104.546 235.278C103.244 235.93 102.718 237.514 103.37 238.816Z"   fill="#0D3039" >
</path>
<path d="M111.024 243.741C110.362 245.075 110.441 250.028 110.822 250.217C111.203 250.406 115.194 247.473 115.856 246.138C116.518 244.804 115.973 243.186 114.638 242.524C113.304 241.862 111.686 242.407 111.024 243.741Z"   fill="#0D3039" >
</path>
<path d="M104.498 251.267C105.947 251.611 110.754 250.419 110.853 250.005C110.951 249.592 107.194 246.364 105.745 246.019C104.296 245.675 102.842 246.57 102.498 248.019C102.153 249.468 103.049 250.922 104.498 251.267Z"   fill="#0D3039" >
</path>
<path d="M119.451 270.116C118.105 272.223 117.341 280.502 117.942 280.886C118.544 281.27 125.735 277.097 127.081 274.99C128.427 272.883 127.81 270.084 125.703 268.738C123.596 267.392 120.797 268.009 119.451 270.116Z"   fill="#0D3039" >
</path>
<path d="M107.199 281.495C109.555 282.332 117.793 281.212 118.032 280.54C118.271 279.868 112.586 273.801 110.23 272.964C107.874 272.127 105.286 273.358 104.449 275.714C103.612 278.07 104.843 280.658 107.199 281.495Z"   fill="#0D3039" >
</path>
<path d="M124.302 280.353C122.127 282.505 118.985 292.183 119.6 292.803C120.214 293.424 129.922 290.38 132.097 288.227C134.271 286.074 134.289 282.567 132.136 280.392C129.983 278.218 126.476 278.2 124.302 280.353Z"   fill="#0D3039" >
</path>
<path d="M107.051 295.038C110.024 295.76 119.911 293.36 120.117 292.511C120.323 291.662 112.64 284.993 109.666 284.271C106.693 283.549 103.698 285.374 102.975 288.347C102.253 291.32 104.078 294.316 107.051 295.038Z"   fill="#0D3039" >
</path>
<path d="M126.235 292.953C124.061 295.105 120.919 304.782 121.533 305.403C122.148 306.023 131.856 302.979 134.03 300.827C136.205 298.674 136.222 295.167 134.07 292.992C131.917 290.818 128.409 290.8 126.235 292.953Z"   fill="#0D3039" >
</path>
<path d="M108.985 307.637C111.958 308.36 121.845 305.959 122.052 305.111C122.258 304.262 114.574 297.593 111.601 296.871C108.628 296.148 105.632 297.973 104.91 300.946C104.188 303.919 106.012 306.915 108.985 307.637Z"   fill="#0D3039" >
</path>
<path d="M132.377 309.418C129.547 310.581 122.956 318.331 123.287 319.139C123.619 319.947 133.755 320.83 136.585 319.668C139.416 318.506 140.768 315.27 139.606 312.439C138.444 309.609 135.207 308.256 132.377 309.418Z"   fill="#0D3039" >
</path>
<path d="M110.484 320.03C113.344 321.118 123.453 319.972 123.764 319.156C124.074 318.34 117.285 310.762 114.425 309.674C111.566 308.586 108.365 310.022 107.277 312.881C106.189 315.741 107.625 318.941 110.484 320.03Z"   fill="#0D3039" >
</path>
<path d="M113.611 251.947C112.938 253.303 113.019 258.334 113.406 258.527C113.792 258.719 117.848 255.738 118.52 254.383C119.193 253.027 118.639 251.383 117.283 250.71C115.928 250.037 114.283 250.591 113.611 251.947Z"   fill="#0D3039" >
</path>
<path d="M107.158 259.718C108.63 260.068 113.515 258.856 113.615 258.436C113.715 258.016 109.898 254.735 108.425 254.385C106.953 254.036 105.476 254.945 105.126 256.418C104.776 257.89 105.686 259.367 107.158 259.718Z"   fill="#0D3039" >
</path>
<path d="M116.837 259.707C115.727 261.549 115.255 268.683 115.78 269C116.306 269.317 122.395 265.569 123.505 263.728C124.615 261.887 124.023 259.494 122.182 258.384C120.34 257.274 117.948 257.866 116.837 259.707Z"   fill="#0D3039" >
</path>
<path d="M106.71 270.592C108.801 271.089 115.741 269.368 115.883 268.771C116.025 268.174 110.602 263.514 108.51 263.016C106.419 262.519 104.32 263.812 103.822 265.904C103.325 267.996 104.618 270.094 106.71 270.592Z"   fill="#0D3039" >
</path>
<path d="M87.5579 319.55C87.5699 319.551 87.5821 319.551 87.5945 319.549C87.6935 319.537 87.7639 319.447 87.7514 319.348C84.5426 293.459 80.7678 274.925 77.1225 267.159C77.0417 266.987 76.983 266.862 76.9632 266.801C76.9323 266.706 76.83 266.654 76.7354 266.685C76.6403 266.715 76.5884 266.817 76.6193 266.912C76.6462 266.995 76.7023 267.115 76.7951 267.313C80.4247 275.045 84.1882 293.541 87.3927 319.392C87.4035 319.479 87.4741 319.544 87.5579 319.55Z"   fill="#49A0BB" >
</path>
<path d="M73.9716 265.319C74.4107 266.196 77.0455 268.116 77.2958 267.991C77.5461 267.866 77.5856 264.605 77.1463 263.729C76.7073 262.852 75.6406 262.497 74.7639 262.936C73.8872 263.376 73.5324 264.442 73.9716 265.319Z"   fill="#49A0BB" >
</path>
<path d="M79.1263 268.636C78.6805 269.535 78.7336 272.87 78.9902 272.997C79.2467 273.125 81.9347 271.149 82.3805 270.251C82.8263 269.352 82.4592 268.262 81.5607 267.817C80.6619 267.371 79.572 267.738 79.1263 268.636Z"   fill="#49A0BB" >
</path>
<path d="M74.7316 273.705C75.7076 273.937 78.9453 273.134 79.0116 272.855C79.0777 272.577 76.5477 270.403 75.5719 270.171C74.596 269.939 73.6166 270.542 73.3847 271.518C73.1525 272.494 73.7557 273.473 74.7316 273.705Z"   fill="#49A0BB" >
</path>
<path d="M84.8017 286.4C83.8951 287.819 83.3806 293.394 83.7855 293.653C84.1906 293.912 89.0335 291.102 89.9401 289.683C90.8467 288.264 90.4311 286.379 89.0122 285.472C87.5933 284.566 85.7081 284.981 84.8017 286.4Z"   fill="#49A0BB" >
</path>
<path d="M76.5504 294.061C78.137 294.625 83.6854 293.871 83.8461 293.418C84.007 292.965 80.1784 288.879 78.5918 288.315C77.0053 287.752 75.2621 288.581 74.6982 290.168C74.1346 291.754 74.9638 293.498 76.5504 294.061Z"   fill="#49A0BB" >
</path>
<path d="M88.0677 293.292C86.6035 294.742 84.4875 301.259 84.9013 301.677C85.315 302.095 91.8531 300.045 93.3174 298.595C94.7816 297.146 94.7936 294.783 93.344 293.319C91.8944 291.855 89.532 291.843 88.0677 293.292Z"   fill="#49A0BB" >
</path>
<path d="M76.4506 303.182C78.4529 303.668 85.1115 302.051 85.2502 301.48C85.3891 300.908 80.2145 296.417 78.212 295.93C76.21 295.444 74.1923 296.673 73.706 298.675C73.2194 300.677 74.4483 302.695 76.4506 303.182Z"   fill="#49A0BB" >
</path>
<path d="M89.3704 301.779C87.9062 303.228 85.7903 309.745 86.204 310.163C86.6178 310.581 93.1558 308.531 94.6202 307.081C96.0845 305.632 96.0964 303.27 94.6467 301.805C93.1971 300.341 90.8348 300.329 89.3704 301.779Z"   fill="#49A0BB" >
</path>
<path d="M77.7533 311.668C79.7556 312.154 86.4142 310.538 86.5529 309.966C86.6918 309.394 81.5172 304.903 79.5147 304.417C77.5127 303.931 75.495 305.159 75.0087 307.161C74.5221 309.164 75.7512 311.181 77.7533 311.668Z"   fill="#49A0BB" >
</path>
<path d="M93.5066 312.866C91.6003 313.649 87.1618 318.869 87.3851 319.413C87.6084 319.957 94.4345 320.552 96.3405 319.769C98.2466 318.986 99.1576 316.807 98.3749 314.901C97.5923 312.995 95.4127 312.084 93.5066 312.866Z"   fill="#49A0BB" >
</path>
<path d="M78.7623 320.014C80.688 320.747 87.4963 319.975 87.7055 319.426C87.9148 318.876 83.3421 313.773 81.4164 313.04C79.4906 312.307 77.3353 313.274 76.6024 315.2C75.8695 317.125 76.8365 319.281 78.7623 320.014Z"   fill="#49A0BB" >
</path>
<path d="M80.8688 274.162C80.416 275.075 80.47 278.464 80.7307 278.593C80.9912 278.723 83.7223 276.716 84.1753 275.803C84.6283 274.89 84.2552 273.782 83.3423 273.329C82.4292 272.876 81.3218 273.249 80.8688 274.162Z"   fill="#49A0BB" >
</path>
<path d="M76.5225 279.395C77.5141 279.631 80.8037 278.815 80.871 278.532C80.9383 278.249 78.3678 276.04 77.3762 275.804C76.3846 275.568 75.3899 276.181 75.154 277.173C74.9183 278.165 75.5309 279.159 76.5225 279.395Z"   fill="#49A0BB" >
</path>
<path d="M83.0411 279.39C82.2935 280.63 81.9752 285.434 82.3291 285.648C82.683 285.861 86.7838 283.337 87.5316 282.097C88.2793 280.857 87.8802 279.246 86.6404 278.498C85.4003 277.75 83.7889 278.15 83.0411 279.39Z"   fill="#49A0BB" >
</path>
<path d="M76.2202 286.72C77.6289 287.055 82.3024 285.896 82.398 285.494C82.4936 285.092 78.8416 281.954 77.4329 281.619C76.0242 281.284 74.6108 282.154 74.2758 283.563C73.9409 284.972 74.8115 286.385 76.2202 286.72Z"   fill="#49A0BB" >
</path>
<path     fill="#0D3039"  d="M147.796 308.098L389.005 308.098L389.005 310.269C389.005 315.618 384.669 319.954 379.32 319.954L157.481 319.954C152.132 319.954 147.796 315.618 147.796 310.269L147.796 308.098Z">
</path>
<path d="M258.014 113.329C252.904 113.329 248.9 101.875 248.9 87.2526C248.9 72.6301 252.904 61.1758 258.014 61.1758C263.125 61.1758 267.129 72.6301 267.129 87.2526C267.129 101.875 263.125 113.329 258.014 113.329ZM258.014 62.3108C254.161 62.3108 250.035 72.333 250.035 87.2526C250.035 102.172 254.161 112.194 258.014 112.194C261.868 112.194 265.994 102.172 265.994 87.2526C265.994 72.333 261.868 62.3108 258.014 62.3108Z"   fill="#2EC2D8" >
</path>
<path d="M241.324 103.343C239.339 103.343 237.833 102.802 236.983 101.664C233.927 97.5678 240.713 87.5089 252.432 78.7641C257.941 74.6533 263.664 71.5048 268.548 69.8986C273.624 68.2288 277.26 68.4328 278.783 70.4737C281.839 74.5697 275.053 84.6287 263.334 93.3736C254.871 99.689 246.483 103.343 241.324 103.343ZM274.452 69.9082C272.951 69.9082 271.07 70.2639 268.903 70.9767C264.133 72.5458 258.524 75.6343 253.111 79.6737C241.153 88.5963 235.589 97.8968 237.893 100.985C238.503 101.802 239.687 102.215 241.319 102.215C245.856 102.216 253.861 99.0265 262.655 92.4641C274.613 83.5413 280.177 74.2408 277.873 71.1524C277.254 70.3237 276.075 69.9082 274.452 69.9082Z"   fill="#2EC2D8" >
</path>
<path d="M274.438 103.359C272.803 103.359 270.82 102.986 268.548 102.239C263.664 100.633 257.941 97.4842 252.432 93.3736C240.713 84.6287 233.927 74.5697 236.983 70.4737C240.04 66.3774 251.615 70.0194 263.334 78.7642C275.053 87.5089 281.839 97.5678 278.783 101.664C277.941 102.791 276.455 103.359 274.438 103.359ZM253.111 92.4641C258.524 96.5035 264.133 99.592 268.903 101.161C273.413 102.645 276.682 102.581 277.873 100.986C280.177 97.8968 274.613 88.5963 262.655 79.6737C250.698 70.7511 240.198 68.0641 237.893 71.1525C235.589 74.2408 241.153 83.5413 253.111 92.4641Z"   fill="#2EC2D8" >
</path>
<path d="M262.674 83.6803C262.674 82.0941 261.389 80.8086 259.803 80.8086C258.216 80.8086 256.931 82.0941 256.931 83.6803C256.931 85.2663 258.216 86.552 259.803 86.552C261.389 86.552 262.674 85.2663 262.674 83.6803Z"   fill="#C43932" >
</path>
<path d="M262.88 87.9891C262.88 86.4029 261.594 85.1172 260.008 85.1172C258.422 85.1172 257.137 86.4029 257.137 87.9891C257.137 89.5751 258.422 90.8608 260.008 90.8608C261.594 90.8608 262.88 89.5751 262.88 87.9891Z"   fill="#49A0BB" >
</path>
<path d="M258.367 85.9363C258.367 84.3504 257.082 83.0645 255.495 83.0645C253.91 83.0645 252.624 84.3504 252.624 85.9363C252.624 87.5223 253.91 88.808 255.495 88.808C257.082 88.808 258.367 87.5223 258.367 85.9363Z"   fill="#0D3039" >
</path>
<rect x="239.697265625" y="98.4765625" width="2.133105754852295" height="2.9689278602600098" transform="rotate(151.87599796146208 239.697265625 98.4765625)"   fill="#B9E2EF" >
</rect>
<rect x="236.28125" y="100.501953125" width="2.133136510848999" height="2.9687891006469727" transform="rotate(151.87258477430666 236.28125 100.501953125)"   fill="#B9E2EF" >
</rect>
<rect x="232.18359375" y="102.673828125" width="2.1331119537353516" height="2.9688875675201416" transform="rotate(151.86900806270532 232.18359375 102.673828125)"   fill="#B9E2EF" >
</rect>
<rect x="243.9609375" y="126.2109375" width="12.688451766967773" height="13.415722846984863" transform="rotate(150.0004356479687 243.9609375 126.2109375)"   fill="#2EC2D8" >
</rect>
<rect x="236.7861328125" y="117.626953125" width="5.2564496994018555" height="5.305565357208252" transform="rotate(150.00082896277644 236.7861328125 117.626953125)"   fill="#2EC2D8" >
</rect>
<rect x="245.208984375" y="106.8671875" width="17.825014114379883" height="1.3553017377853394" transform="rotate(149.9999521111721 245.208984375 106.8671875)"   fill="#0D3039" >
</rect>
<rect x="247.0048828125" y="121.4375" width="15.008454322814941" height="3.584857940673828" transform="rotate(150.0004921929573 247.0048828125 121.4375)"   fill="#2EC2D8" >
</rect>
<rect x="246.3564453125" y="109.896484375" width="17.824922561645508" height="0.5291520953178406" transform="rotate(150.0000669086785 246.3564453125 109.896484375)"   fill="#0D3039" >
</rect>
<rect x="234.5048828125" y="95.126953125" width="6.005789756774902" height="23.725244522094727" transform="rotate(151.87067342475163 234.5048828125 95.126953125)"   fill="#2EC2D8" >
</rect>
<rect x="239.875" y="95.533203125" width="14.362046241760254" height="2.968883752822876" transform="rotate(151.87128613478345 239.875 95.533203125)"   fill="#0D3039" >
</rect>
<rect x="225.1474609375" y="76.310546875" width="7.46156120300293" height="5.52203369140625" transform="rotate(151.8709835965413 225.1474609375 76.310546875)"   fill="#0D3039" >
</rect>
<path d="M226.508 124.152L227.878 120.668C224.039 119.158 221.138 115.87 220.117 111.873L218.262 104.609C217.218 100.523 218.244 96.1799 221.005 92.9924L223.72 89.86L220.891 87.4082L218.176 90.5406C214.611 94.6553 213.286 100.261 214.634 105.536L216.489 112.8C217.807 117.959 221.552 122.203 226.508 124.152Z"   fill="#2EC2D8" >
</path>
<path d="M219.468 88.392C220.045 86.1385 222.339 84.7786 224.593 85.355C226.846 85.9313 228.206 88.2253 227.629 90.479C227.053 92.7328 224.759 94.0925 222.505 93.5162C220.252 92.9398 218.892 90.6457 219.468 88.392Z"   fill="#0D3039" >
</path>
<path d="M221.433 88.8954C221.732 87.7267 222.921 87.0217 224.09 87.3206C225.259 87.6194 225.964 88.809 225.665 89.9776C225.366 91.1459 224.176 91.851 223.008 91.5524C221.839 91.2533 221.134 90.0638 221.433 88.8954Z"   fill="#B9E2EF" >
</path>
<rect x="226.248046875" y="143.76953125" width="4.991778373718262" height="18.719594955444336" transform="rotate(-159.4611885299679 226.248046875 143.76953125)"   fill="#2EC2D8" >
</rect>
<rect x="220.642578125" y="144.42578125" width="4.99191951751709" height="29.95157241821289" transform="rotate(-90.00000000000001 220.642578125 144.42578125)"   fill="#2EC2D8" >
</rect>
<path d="M219.929 125.741C220.75 122.531 224.018 120.594 227.228 121.415C230.438 122.236 232.376 125.504 231.554 128.714C230.733 131.925 227.465 133.862 224.255 133.041C221.045 132.22 219.108 128.952 219.929 125.741Z"   fill="#2EC2D8" >
</path>
<path d="M215.101 120.839C215.677 118.586 217.972 117.226 220.225 117.802C222.479 118.378 223.839 120.673 223.262 122.926C222.686 125.18 220.392 126.54 218.138 125.963C215.884 125.387 214.525 123.093 215.101 120.839Z"   fill="#0D3039" >
</path>
<path d="M217.066 121.343C217.365 120.174 218.554 119.469 219.723 119.768C220.891 120.067 221.596 121.256 221.297 122.425C220.999 123.593 219.809 124.298 218.64 124C217.472 123.701 216.767 122.511 217.066 121.343Z"   fill="#B9E2EF" >
</path>
<path d="M368.911 17.2656L333.351 17.2656L333.351 83.3701L378.894 83.3701L378.894 26.3595L368.911 17.2656Z"   fill="#FFFFFF" >
</path>
<path d="M381.705 26.587L368.911 26.587C368.799 26.587 368.709 26.4941 368.709 26.3792L368.709 17.2644C368.709 17.1497 368.799 17.0566 368.911 17.0566C369.023 17.0566 369.113 17.1497 369.113 17.2644L369.113 26.1716L381.705 26.1716C381.816 26.1716 381.906 26.2645 381.906 26.3792C381.906 26.4941 381.816 26.587 381.705 26.587Z"   fill="#B9E2EF" >
</path>
<path d="M365.033 26.0481L346.036 26.0481C345.924 26.0481 345.834 25.9553 345.834 25.8406C345.834 25.7259 345.924 25.6328 346.036 25.6328L365.033 25.6328C365.145 25.6328 365.235 25.7259 365.235 25.8406C365.235 25.9553 365.145 26.0481 365.033 26.0481Z"   fill="#2EC2D8" >
</path>
<path d="M375.308 34.5774L336.932 34.5774C336.821 34.5774 336.73 34.4846 336.73 34.3699C336.73 34.2552 336.821 34.1621 336.932 34.1621L375.308 34.1621C375.42 34.1621 375.51 34.2552 375.51 34.3699C375.51 34.4846 375.42 34.5774 375.308 34.5774Z"   fill="#2EC2D8" >
</path>
<path d="M375.308 37.5501L336.932 37.5501C336.821 37.5501 336.73 37.457 336.73 37.3423C336.73 37.2276 336.821 37.1348 336.932 37.1348L375.308 37.1348C375.42 37.1348 375.51 37.2276 375.51 37.3423C375.51 37.457 375.42 37.5501 375.308 37.5501Z"   fill="#2EC2D8" >
</path>
<path d="M375.308 41.7944L336.932 41.7944C336.821 41.7944 336.73 41.7014 336.73 41.5869C336.73 41.472 336.821 41.3789 336.932 41.3789L375.308 41.3789C375.42 41.3789 375.51 41.472 375.51 41.5869C375.51 41.7014 375.42 41.7944 375.308 41.7944Z"   fill="#2EC2D8" >
</path>
<path d="M375.308 44.7669L336.932 44.7669C336.821 44.7669 336.73 44.6738 336.73 44.5593C336.73 44.4444 336.821 44.3516 336.932 44.3516L375.308 44.3516C375.42 44.3516 375.51 44.4444 375.51 44.5593C375.51 44.6738 375.42 44.7669 375.308 44.7669Z"   fill="#2EC2D8" >
</path>
<path d="M375.308 47.7397L336.932 47.7397C336.821 47.7397 336.73 47.6467 336.73 47.532C336.73 47.4173 336.821 47.3242 336.932 47.3242L375.308 47.3242C375.42 47.3242 375.51 47.4173 375.51 47.532C375.51 47.6467 375.42 47.7397 375.308 47.7397Z"   fill="#2EC2D8" >
</path>
<path d="M375.308 50.7122L336.932 50.7122C336.821 50.7122 336.73 50.6192 336.73 50.5046C336.73 50.3895 336.821 50.2969 336.932 50.2969L375.308 50.2969C375.42 50.2969 375.51 50.3895 375.51 50.5046C375.51 50.6192 375.42 50.7122 375.308 50.7122Z"   fill="#2EC2D8" >
</path>
<path d="M375.308 61.986L336.932 61.986C336.821 61.986 336.73 61.893 336.73 61.7781C336.73 61.6636 336.821 61.5703 336.932 61.5703L375.308 61.5703C375.42 61.5703 375.51 61.6636 375.51 61.7781C375.51 61.893 375.42 61.986 375.308 61.986Z"   fill="#2EC2D8" >
</path>
<path d="M375.308 64.9585L336.932 64.9585C336.821 64.9585 336.73 64.8654 336.73 64.7507C336.73 64.6362 336.821 64.543 336.932 64.543L375.308 64.543C375.42 64.543 375.51 64.6362 375.51 64.7507C375.51 64.8654 375.42 64.9585 375.308 64.9585Z"   fill="#2EC2D8" >
</path>
<path d="M375.308 67.9312L336.932 67.9312C336.821 67.9312 336.73 67.8381 336.73 67.7232C336.73 67.6087 336.821 67.5156 336.932 67.5156L375.308 67.5156C375.42 67.5156 375.51 67.6087 375.51 67.7232C375.51 67.8381 375.42 67.9312 375.308 67.9312Z"   fill="#2EC2D8" >
</path>
<path d="M375.308 70.9036L336.932 70.9036C336.821 70.9036 336.73 70.8105 336.73 70.6959C336.73 70.5813 336.821 70.4883 336.932 70.4883L375.308 70.4883C375.42 70.4883 375.51 70.5813 375.51 70.6959C375.51 70.8105 375.42 70.9036 375.308 70.9036Z"   fill="#2EC2D8" >
</path>
<path d="M389.705 45.8399C391.95 43.9277 394.845 41.3163 397.853 38.2206L392.998 38.2206L399.835 36.1225C401.933 33.8383 404.024 31.3478 405.927 28.7197L401.079 29.693L407.016 27.1648C407.782 26.04 408.511 24.8962 409.184 23.7344C409.184 23.7344 401.849 24.3246 394.063 27.773L392.856 32.6357L392.964 28.2766C390.632 29.3875 388.289 30.7607 386.117 32.4598C386.002 32.5503 385.896 32.6418 385.783 32.7325C385.046 36.1217 383.733 41.9493 383.631 40.9484C383.543 40.0875 383.672 36.9425 383.817 34.4789C376.529 41.6469 377.532 49.3243 377.532 49.3243L385.393 49.3243L381.907 47.7381L389.705 45.8399Z"   fill="#B9E2EF" >
</path>
<path d="M368.989 58.7486L364.419 60.9106C364.629 60.6963 389.59 36.6763 399.605 29.0957L400.075 29.754C390.107 37.2998 369.199 58.5351 368.989 58.7486Z"   fill="#0D3039" >
</path>
<path d="M335.942 74.151C335.389 74.151 334.941 73.69 334.941 73.1212L334.941 72.2874L335.698 72.2874C336.07 72.2874 336.371 71.9772 336.371 71.5949C336.371 71.2124 336.07 70.9023 335.698 70.9023L327.128 70.9023C326.757 70.9023 326.455 71.2124 326.455 71.5949C326.455 71.9772 326.757 72.2874 327.128 72.2874L327.885 72.2874L327.885 73.1212C327.885 73.69 327.437 74.151 326.884 74.151C325.225 74.151 323.881 75.5345 323.881 77.2403L323.881 82.2177C323.881 82.8538 324.382 83.3695 325 83.3695L337.826 83.3695C338.444 83.3695 338.945 82.8538 338.945 82.2177L338.945 77.2403C338.945 75.5345 337.601 74.151 335.942 74.151L335.942 74.151Z"   fill="#B9E2EF" >
</path>
<path     fill="#0D3039"  d="M324.286 76.959L338.445 76.959L338.445 82.525C338.445 82.7623 338.253 82.9546 338.015 82.9546L324.716 82.9546C324.478 82.9546 324.286 82.7623 324.286 82.5251L324.286 76.959Z">
</path>
<path d="M363.785 119.284C363.785 112.243 357.604 106.535 349.979 106.535C342.354 106.535 336.174 112.243 336.174 119.284C336.174 122.698 337.628 125.8 339.995 128.088C342.14 130.161 343.374 133.002 343.374 135.985C343.374 138.398 345.33 140.355 347.743 140.355L352.215 140.355C354.628 140.355 356.584 138.398 356.584 135.985C356.584 133.002 357.818 130.161 359.963 128.088C362.33 125.8 363.785 122.698 363.785 119.284Z"   fill="#DC4E4A" >
</path>
<path d="M352.401 141.943C352.315 141.943 352.243 141.876 352.238 141.789C352.162 140.368 354.317 118.165 354.408 117.221C354.417 117.132 354.495 117.066 354.586 117.075C354.675 117.084 354.74 117.163 354.732 117.253C354.709 117.483 352.488 140.375 352.563 141.772C352.568 141.862 352.499 141.938 352.409 141.943C352.407 141.943 352.404 141.943 352.401 141.943Z"   fill="#0D3039" >
</path>
<path d="M347.435 141.943C347.432 141.943 347.429 141.943 347.425 141.943C347.336 141.938 347.267 141.861 347.272 141.772C347.347 140.375 345.126 117.483 345.103 117.253C345.095 117.163 345.16 117.084 345.249 117.075C345.339 117.066 345.418 117.132 345.427 117.221C345.519 118.165 347.673 140.369 347.597 141.789C347.592 141.876 347.52 141.943 347.435 141.943Z"   fill="#0D3039" >
</path>
<path d="M349.501 122.911C349.08 122.911 348.643 122.762 348.282 122.482C348.021 122.669 347.706 122.786 347.367 122.755C346.906 122.713 346.461 122.397 346.177 121.909C345.933 121.489 345.546 120.057 345.441 119.565C345.432 119.521 345.46 119.478 345.504 119.468C345.547 119.459 345.591 119.487 345.6 119.531C345.709 120.042 346.092 121.439 346.318 121.827C346.575 122.27 346.972 122.556 347.381 122.593C347.663 122.619 347.929 122.526 348.154 122.374L348.152 122.372C347.557 121.828 347.336 121.065 347.255 120.52C347.153 119.837 347.24 119.269 347.512 118.833C347.638 118.631 347.788 118.493 347.958 118.424C348.391 118.245 348.893 118.552 349.09 118.953C349.285 119.348 349.266 119.799 349.23 120.228C349.185 120.761 349.112 121.372 348.817 121.89C348.717 122.063 348.58 122.234 348.414 122.378C348.913 122.749 349.555 122.855 350.066 122.638C350.281 122.547 350.475 122.399 350.636 122.209C350.432 122.086 350.265 121.913 350.165 121.703C350.05 121.462 350.022 121.197 350.008 120.946C349.968 120.194 350.05 119.445 350.252 118.72C350.259 118.693 350.279 118.673 350.305 118.664C350.56 118.581 350.818 118.735 350.95 118.912C351.087 119.096 351.14 119.322 351.181 119.538C351.28 120.049 351.374 120.718 351.228 121.355C351.16 121.654 351.041 121.925 350.882 122.155C351.16 122.272 351.49 122.299 351.797 122.204C351.963 122.153 352.12 122.072 352.265 121.965C352.154 121.794 352.075 121.613 352.024 121.47C351.61 120.324 351.645 119.022 352.122 117.9C352.131 117.879 352.148 117.863 352.17 117.855C352.52 117.733 352.886 117.95 353.066 118.227C353.252 118.512 353.292 118.859 353.314 119.162C353.354 119.691 353.37 120.38 353.137 121.024C352.995 121.415 352.769 121.749 352.489 121.993C352.63 122.168 352.816 122.312 353.054 122.332C353.251 122.347 353.425 122.273 353.538 122.207C353.93 121.978 354.162 121.486 354.089 121.038C354.082 120.993 354.112 120.952 354.156 120.945C354.202 120.938 354.243 120.968 354.25 121.012C354.333 121.532 354.075 122.081 353.62 122.347C353.429 122.459 353.229 122.509 353.04 122.494C352.748 122.469 352.526 122.302 352.36 122.096C352.201 122.214 352.027 122.303 351.845 122.359C351.489 122.469 351.104 122.433 350.783 122.287C350.601 122.509 350.379 122.682 350.129 122.788C349.933 122.871 349.719 122.911 349.501 122.911ZM348.227 118.533C348.157 118.533 348.087 118.546 348.02 118.574C347.882 118.63 347.758 118.747 347.65 118.919C347.402 119.316 347.321 119.861 347.416 120.496C347.493 121.015 347.702 121.74 348.262 122.252C348.27 122.259 348.278 122.267 348.286 122.274C348.447 122.139 348.58 121.976 348.675 121.809C348.955 121.32 349.025 120.73 349.068 120.214C349.102 119.808 349.121 119.382 348.945 119.024C348.812 118.755 348.519 118.533 348.227 118.533ZM350.396 118.809C350.208 119.503 350.132 120.219 350.17 120.938C350.183 121.172 350.208 121.418 350.311 121.633C350.4 121.82 350.551 121.973 350.736 122.081C350.889 121.865 351.005 121.605 351.07 121.319C351.209 120.711 351.117 120.065 351.022 119.569C350.983 119.371 350.936 119.165 350.82 119.009C350.726 118.883 350.553 118.781 350.396 118.809ZM352.257 117.999C351.81 119.075 351.781 120.318 352.177 121.415C352.216 121.524 352.287 121.696 352.394 121.861C352.648 121.636 352.854 121.328 352.984 120.969C353.207 120.354 353.191 119.687 353.152 119.174C353.131 118.892 353.094 118.569 352.93 118.315C352.793 118.106 352.517 117.93 352.257 117.999Z"   fill="#0D3039" >
</path>
<path     fill="#49A0BB"  d="M344.431 144.186L355.528 144.186L355.528 147.086C355.528 147.235 355.407 147.356 355.257 147.356L344.701 147.356C344.552 147.356 344.431 147.235 344.431 147.086L344.431 144.186Z">
</path>
<path d="M350.662 145.719C347.395 145.719 344.485 144.788 344.301 144.728C343.746 144.547 343.444 143.95 343.625 143.395C343.806 142.84 344.403 142.537 344.957 142.719C345.055 142.75 351.087 144.663 354.857 142.778C355.38 142.517 356.015 142.728 356.275 143.25C356.536 143.772 356.325 144.407 355.803 144.668C354.223 145.458 352.392 145.719 350.662 145.719Z"   fill="#0D3039" >
</path>
<path d="M350.662 144.003C347.395 144.003 344.485 143.071 344.301 143.011C343.746 142.83 343.444 142.233 343.625 141.678C343.806 141.124 344.403 140.82 344.957 141.002C345.055 141.033 351.087 142.947 354.857 141.061C355.38 140.8 356.015 141.012 356.275 141.534C356.536 142.056 356.325 142.691 355.803 142.952C354.223 143.741 352.392 144.003 350.662 144.003Z"   fill="#49A0BB" >
</path>
<path d="M350.662 142.286C347.395 142.286 344.485 141.354 344.301 141.294C343.746 141.113 343.444 140.517 343.625 139.962C343.806 139.406 344.403 139.104 344.957 139.285C345.055 139.316 351.087 141.23 354.857 139.344C355.38 139.083 356.015 139.295 356.275 139.817C356.536 140.339 356.325 140.974 355.803 141.235C354.223 142.025 352.392 142.286 350.662 142.286Z"   fill="#0D3039" >
</path>
<path d="M351.72 162.637L351.72 159.034L348.649 159.034C348.48 158.566 348.262 158.123 347.999 157.709L350.033 155.257L347.26 152.957L345.329 155.286C344.933 155.086 344.515 154.924 344.08 154.804L344.08 151.891L340.478 151.891L340.478 154.804C340.042 154.924 339.625 155.086 339.229 155.286L337.298 152.957L334.524 155.257L336.558 157.709C336.296 158.123 336.077 158.566 335.909 159.034L332.837 159.034L332.837 162.637L335.634 162.637C335.781 163.39 336.053 164.099 336.427 164.74L334.524 167.035L337.298 169.335L339.014 167.265C339.472 167.517 339.963 167.719 340.478 167.86L340.478 170.401L344.08 170.401L344.08 167.86C344.595 167.719 345.085 167.517 345.543 167.265L347.26 169.335L350.033 167.035L348.13 164.74C348.505 164.099 348.777 163.39 348.923 162.637L351.72 162.637ZM342.279 164.873C340.323 164.873 338.738 163.288 338.738 161.332C338.738 159.377 340.323 157.792 342.279 157.792C344.234 157.792 345.82 159.377 345.82 161.332C345.82 163.288 344.234 164.873 342.279 164.873Z"   fill="#2EC2D8" >
</path>
<path d="M322.523 124.402C315.056 124.402 309.004 130.455 309.004 137.921C309.004 145.387 315.056 151.439 322.523 151.439C329.988 151.439 336.041 145.387 336.041 137.921C336.041 130.455 329.988 124.402 322.523 124.402ZM322.83 147.928C317.303 147.928 312.822 143.448 312.822 137.921C312.822 132.394 317.303 127.914 322.83 127.914C328.357 127.914 332.837 132.394 332.837 137.921C332.837 143.448 328.357 147.928 322.83 147.928Z"   fill="#B9E2EF" >
</path>
<rect x="320.6787109375" y="120.365234375" width="3.687242031097412" height="5.266969680786133"   fill="#B9E2EF" >
</rect>
<rect x="327.9794921875" y="120.7109375" width="3.6869218349456787" height="5.267037391662598" transform="rotate(25.025299099180526 327.9794921875 120.7109375)"   fill="#B9E2EF" >
</rect>
<rect x="334.1943359375" y="124.083984375" width="3.6869165897369385" height="5.26706075668335" transform="rotate(48.35280067603145 334.1943359375 124.083984375)"   fill="#B9E2EF" >
</rect>
<rect x="338.111328125" y="129.208984375" width="3.6868507862091064" height="5.267003536224365" transform="rotate(66.3975132141612 338.111328125 129.208984375)"   fill="#B9E2EF" >
</rect>
<rect x="310.3642578125" y="136.166015625" width="3.686868667602539" height="5.267068386077881" transform="rotate(90 310.3642578125 136.166015625)"   fill="#B9E2EF" >
</rect>
<rect x="339.859375" y="136.166015625" width="3.686868667602539" height="5.2667694091796875" transform="rotate(90 339.859375 136.166015625)"   fill="#B9E2EF" >
</rect>
<rect x="319.2060546875" y="125.482421875" width="3.6868247985839844" height="5.2670416831970215" transform="rotate(154.97523102331212 319.2060546875 125.482421875)"   fill="#B9E2EF" >
</rect>
<rect x="314.69921875" y="127.5859375" width="3.6869559288024902" height="5.267310619354248" transform="rotate(131.64722343100058 314.69921875 127.5859375)"   fill="#B9E2EF" >
</rect>
<rect x="311.6728515625" y="131.318359375" width="3.6868345737457275" height="5.266968727111816" transform="rotate(113.60252041995574 311.6728515625 131.318359375)"   fill="#B9E2EF" >
</rect>
<rect x="320.7236328125" y="150.38671875" width="3.686868190765381" height="5.267067909240723"   fill="#B9E2EF" >
</rect>
<rect x="325.794921875" y="150.537109375" width="3.686906337738037" height="5.267134189605713" transform="rotate(-25.025034811555255 325.794921875 150.537109375)"   fill="#B9E2EF" >
</rect>
<rect x="330.302734375" y="148.435546875" width="3.6867408752441406" height="5.267035484313965" transform="rotate(-48.3569129943709 330.302734375 148.435546875)"   fill="#B9E2EF" >
</rect>
<rect x="333.3291015625" y="144.701171875" width="3.686946392059326" height="5.267104148864746" transform="rotate(-66.39528964098973 333.3291015625 144.701171875)"   fill="#B9E2EF" >
</rect>
<rect x="317.0224609375" y="155.30859375" width="3.686828851699829" height="5.26704740524292" transform="rotate(-154.97562518516887 317.0224609375 155.30859375)"   fill="#B9E2EF" >
</rect>
<rect x="310.806640625" y="151.935546875" width="3.6869056224823" height="5.267073631286621" transform="rotate(-131.6476565003866 310.806640625 151.935546875)"   fill="#B9E2EF" >
</rect>
<rect x="306.890625" y="146.810546875" width="3.687065601348877" height="5.266853332519531" transform="rotate(-113.60473187010192 306.890625 146.810546875)"   fill="#B9E2EF" >
</rect>
<rect x="370.51953125" y="130.052734375" width="4.386256694793701" height="25.33991241455078" transform="rotate(27.88723119057692 370.51953125 130.052734375)"   fill="#0D3039" >
</rect>
<path d="M378.259 123.313L375.039 129.399L372.219 127.907L375.41 121.878C373.223 121.521 370.958 122.564 369.865 124.631C368.493 127.222 369.483 130.434 372.074 131.805C374.665 133.177 377.877 132.188 379.248 129.596C380.377 127.464 379.904 124.914 378.259 123.313Z"   fill="#0D3039" >
</path>
<path d="M358.514 160.626L361.734 154.54L358.915 153.048L355.725 159.078C354.2 157.47 353.788 155.011 354.882 152.944C356.253 150.353 359.465 149.363 362.056 150.734C364.648 152.106 365.637 155.318 364.266 157.909C363.138 160.042 360.764 161.085 358.514 160.626Z"   fill="#0D3039" >
</path>
<path d="M444.405 97.6063L417.02 97.6063C416.357 97.6063 415.819 97.069 415.819 96.406L415.819 69.0206C415.819 68.3576 416.357 67.8203 417.02 67.8203L444.405 67.8203C445.068 67.8203 445.605 68.3576 445.605 69.0206L445.605 96.406C445.605 97.069 445.068 97.6063 444.405 97.6063ZM418.22 95.2056L443.205 95.2056L443.205 70.221L418.22 70.221L418.22 95.2056Z"   fill="#B9E2EF" >
</path>
<path d="M430.712 91.1967C430.704 91.1967 430.697 91.1967 430.689 91.1964C430.261 91.1882 429.869 90.9527 429.662 90.5783C429.625 90.5116 425.896 83.8339 421.169 79.6548C420.672 79.2159 420.626 78.4572 421.065 77.9608C421.504 77.4638 422.263 77.4178 422.759 77.8564C426.307 80.993 429.24 85.2963 430.723 87.6716C439.739 72.9717 446.379 64.551 446.448 64.4644C446.859 63.9454 447.614 63.8575 448.134 64.2693C448.654 64.6808 448.741 65.4356 448.33 65.9554C448.259 66.0441 441.192 75.009 431.739 90.6184C431.521 90.9781 431.131 91.1967 430.712 91.1967Z"   fill="#B9E2EF" >
</path>
<path d="M302.201 48.9664L277.933 48.9664C277.345 48.9664 276.869 48.4901 276.869 47.9026L276.869 23.6341C276.869 23.0464 277.345 22.5703 277.933 22.5703L302.201 22.5703C302.789 22.5703 303.265 23.0464 303.265 23.6341L303.265 47.9026C303.265 48.4901 302.789 48.9664 302.201 48.9664ZM278.996 46.839L301.137 46.839L301.137 24.6977L278.996 24.6977L278.996 46.839Z"   fill="#B9E2EF" >
</path>
<path d="M290.067 43.2861C290.06 43.2861 290.054 43.2861 290.047 43.2859C289.667 43.2786 289.32 43.0699 289.137 42.738C289.104 42.6789 285.799 36.7612 281.61 33.0579C281.17 32.6687 281.129 31.9967 281.518 31.5565C281.907 31.1162 282.58 31.0753 283.02 31.4641C286.163 34.2437 288.763 38.0572 290.077 40.1622C298.067 27.1354 303.951 19.6731 304.013 19.5964C304.377 19.1364 305.045 19.0584 305.506 19.4232C305.967 19.788 306.044 20.4569 305.68 20.9175C305.617 20.996 299.355 28.9408 290.977 42.7736C290.784 43.0923 290.439 43.2861 290.067 43.2861Z"   fill="#B9E2EF" >
</path>
<defs>
<mask id="mask-0_1823" style="mask-type:alpha" maskUnits="userSpaceOnUse">
<path d="M145.664 95.1984L527.817 94.2734L525.922 303.272L336.437 303.007L147.796 303.007L145.664 95.1984Z"   fill="#FFFFFF" >
</path>
</mask>
</defs>
</svg>
