<svg xmlns="http://www.w3.org/2000/svg" xmlns:xlink="http://www.w3.org/1999/xlink" width="636" height="436.19921875" viewBox="0 0 636 436.19921875" fill="none">
<path d="M545.19 436.184C601.038 437.334 636.053 371.879 636 331.638C635.943 288.168 611.986 249.467 597.889 208.912C585.398 172.979 589.979 132.186 570.703 98.2712C547.255 57.0221 494.55 44.8995 449.709 30.3693C391.744 11.5859 330.668 -4.98068 268.107 1.38764C224.035 5.87383 180.791 22.2348 149.959 50.6071C125.698 72.9334 110.292 101.075 92.6927 127.526C74.4809 154.898 50.9377 173.001 28.2387 196.576C-35.3244 262.594 19.5186 381.489 83.418 430.475C83.418 430.475 545.001 436.18 545.19 436.184Z"   fill="#49A0BB" >
</path>
</svg>
