<svg xmlns="http://www.w3.org/2000/svg" xmlns:xlink="http://www.w3.org/1999/xlink" width="16" height="18.28564453125" viewBox="0 0 16 18.28564453125" fill="none">
<path d="M0 16.5714C0 17.5179 0.767857 18.2857 1.71429 18.2857L14.2857 18.2857C15.2321 18.2857 16 17.5179 16 16.5714L16 6.85714L0 6.85714L0 16.5714ZM11.4286 9.57143C11.4286 9.33572 11.6214 9.14286 11.8571 9.14286L13.2857 9.14286C13.5214 9.14286 13.7143 9.33572 13.7143 9.57143L13.7143 11C13.7143 11.2357 13.5214 11.4286 13.2857 11.4286L11.8571 11.4286C11.6214 11.4286 11.4286 11.2357 11.4286 11L11.4286 9.57143ZM11.4286 14.1429C11.4286 13.9071 11.6214 13.7143 11.8571 13.7143L13.2857 13.7143C13.5214 13.7143 13.7143 13.9071 13.7143 14.1429L13.7143 15.5714C13.7143 15.8071 13.5214 16 13.2857 16L11.8571 16C11.6214 16 11.4286 15.8071 11.4286 15.5714L11.4286 14.1429ZM6.85714 9.57143C6.85714 9.33572 7.05 9.14286 7.28571 9.14286L8.71429 9.14286C8.95 9.14286 9.14286 9.33572 9.14286 9.57143L9.14286 11C9.14286 11.2357 8.95 11.4286 8.71429 11.4286L7.28571 11.4286C7.05 11.4286 6.85714 11.2357 6.85714 11L6.85714 9.57143ZM6.85714 14.1429C6.85714 13.9071 7.05 13.7143 7.28571 13.7143L8.71429 13.7143C8.95 13.7143 9.14286 13.9071 9.14286 14.1429L9.14286 15.5714C9.14286 15.8071 8.95 16 8.71429 16L7.28571 16C7.05 16 6.85714 15.8071 6.85714 15.5714L6.85714 14.1429ZM2.28571 9.57143C2.28571 9.33572 2.47857 9.14286 2.71429 9.14286L4.14286 9.14286C4.37857 9.14286 4.57143 9.33572 4.57143 9.57143L4.57143 11C4.57143 11.2357 4.37857 11.4286 4.14286 11.4286L2.71429 11.4286C2.47857 11.4286 2.28571 11.2357 2.28571 11L2.28571 9.57143ZM2.28571 14.1429C2.28571 13.9071 2.47857 13.7143 2.71429 13.7143L4.14286 13.7143C4.37857 13.7143 4.57143 13.9071 4.57143 14.1429L4.57143 15.5714C4.57143 15.8071 4.37857 16 4.14286 16L2.71429 16C2.47857 16 2.28571 15.8071 2.28571 15.5714L2.28571 14.1429ZM14.2857 2.28571L12.5714 2.28571L12.5714 0.571429C12.5714 0.257143 12.3143 0 12 0L10.8571 0C10.5429 0 10.2857 0.257143 10.2857 0.571429L10.2857 2.28571L5.71429 2.28571L5.71429 0.571429C5.71429 0.257143 5.45714 0 5.14286 0L4 0C3.68571 0 3.42857 0.257143 3.42857 0.571429L3.42857 2.28571L1.71429 2.28571C0.767857 2.28571 0 3.05357 0 4L0 5.71429L16 5.71429L16 4C16 3.05357 15.2321 2.28571 14.2857 2.28571Z"   fill="#FFFFFF" >
</path>
</svg>
