<svg xmlns="http://www.w3.org/2000/svg" xmlns:xlink="http://www.w3.org/1999/xlink" width="636" height="445.84130859375" viewBox="0 0 636 445.84130859375" fill="none">
<path d="M545.19 436.184C601.038 437.334 636.053 371.879 636 331.638C635.943 288.168 611.986 249.467 597.889 208.912C585.398 172.979 589.979 132.186 570.703 98.2712C547.255 57.0221 494.55 44.8995 449.709 30.3693C391.744 11.5859 330.668 -4.98068 268.107 1.38764C224.035 5.87383 180.791 22.2348 149.959 50.6071C125.698 72.9334 110.292 101.075 92.6927 127.526C74.4809 154.898 50.9377 173.001 28.2387 196.576C-35.3244 262.594 19.5186 381.489 83.418 430.475C83.418 430.475 545.001 436.18 545.19 436.184Z"   fill="#235460" >
</path>
<path d="M342.451 304.432C342.41 304.414 342.372 304.392 342.334 304.366C342.034 304.152 341.964 303.735 342.178 303.434C398.102 224.946 442.942 171.351 468.436 152.521C469.002 152.103 469.411 151.801 469.583 151.636C469.851 151.381 470.274 151.393 470.528 151.659C470.782 151.927 470.772 152.349 470.505 152.603C470.271 152.825 469.879 153.115 469.229 153.595C443.846 172.344 399.11 225.834 343.266 304.209C343.078 304.473 342.735 304.559 342.451 304.432Z"   fill="#B9E2EF" >
</path>
<path d="M481.909 152.078C478.941 154.155 467.004 155.767 466.411 154.92C465.818 154.072 471.419 143.408 474.387 141.331C477.355 139.254 481.444 139.976 483.522 142.943C485.599 145.911 484.877 150.001 481.909 152.078Z"   fill="#B9E2EF" >
</path>
<path d="M459.332 153.796C459.202 157.5 453.167 168.245 452.11 168.207C451.053 168.17 445.79 157.027 445.92 153.323C446.05 149.619 449.159 146.723 452.863 146.854C456.566 146.984 459.463 150.092 459.332 153.796Z"   fill="#B9E2EF" >
</path>
<path d="M464.707 177.99C461.128 177.029 452.018 168.73 452.292 167.708C452.566 166.686 464.609 164.068 468.188 165.029C471.767 165.99 473.889 169.671 472.928 173.25C471.967 176.829 468.286 178.951 464.707 177.99Z"   fill="#B9E2EF" >
</path>
<path d="M409.671 201.545C410.123 207.749 401.996 226.771 400.226 226.901C398.455 227.03 387.656 209.387 387.204 203.183C386.751 196.979 391.414 191.582 397.619 191.13C403.823 190.678 409.219 195.341 409.671 201.545Z"   fill="#B9E2EF" >
</path>
<path d="M423.016 240.946C416.87 239.99 400.166 227.789 400.439 226.034C400.712 224.28 420.334 217.731 426.48 218.687C432.627 219.644 436.834 225.402 435.878 231.549C434.921 237.696 429.163 241.903 423.016 240.946Z"   fill="#B9E2EF" >
</path>
<path d="M386.942 218.206C389.153 225.491 384.576 250.387 382.497 251.018C380.418 251.649 362.775 233.497 360.563 226.213C358.353 218.929 362.466 211.231 369.75 209.02C377.034 206.81 384.732 210.922 386.942 218.206Z"   fill="#BDD1F9" >
</path>
<path d="M407.313 270.761C399.952 268.823 381.156 251.867 381.709 249.767C382.262 247.665 406.971 242.165 414.332 244.103C421.694 246.041 426.09 253.58 424.152 260.941C422.214 268.302 414.675 272.699 407.313 270.761Z"   fill="#B9E2EF" >
</path>
<path d="M367.796 243.492C370.007 250.776 365.43 275.673 363.351 276.304C361.272 276.935 343.629 258.783 341.418 251.498C339.207 244.214 343.32 236.517 350.604 234.306C357.888 232.095 365.585 236.208 367.796 243.492Z"   fill="#BDD1F9" >
</path>
<path d="M388.168 296.047C380.806 294.108 362.01 277.153 362.563 275.052C363.116 272.951 387.825 267.45 395.187 269.389C402.548 271.327 406.945 278.866 405.006 286.227C403.068 293.589 395.529 297.985 388.168 296.047Z"   fill="#B9E2EF" >
</path>
<path d="M334.868 272.258C339.686 278.151 344.937 302.914 343.255 304.289C341.573 305.665 318.346 295.601 313.527 289.708C308.708 283.815 309.579 275.131 315.472 270.313C321.365 265.494 330.049 266.365 334.868 272.258Z"   fill="#BDD1F9" >
</path>
<path d="M370.222 321.393C362.676 320.39 341.907 305.918 342.193 303.764C342.48 301.61 366.307 293.064 373.853 294.066C381.399 295.069 386.703 301.999 385.701 309.545C384.698 317.091 377.768 322.396 370.222 321.393Z"   fill="#B9E2EF" >
</path>
<path d="M443.958 168.693C443.826 172.456 437.694 183.373 436.62 183.335C435.546 183.298 430.198 171.976 430.331 168.213C430.463 164.45 433.621 161.507 437.384 161.639C441.147 161.772 444.09 164.93 443.958 168.693Z"   fill="#B9E2EF" >
</path>
<path d="M448.883 193.335C445.246 192.359 435.99 183.926 436.269 182.888C436.548 181.85 448.783 179.189 452.419 180.166C456.056 181.143 458.212 184.882 457.235 188.519C456.259 192.156 452.519 194.312 448.883 193.335Z"   fill="#B9E2EF" >
</path>
<path d="M427.71 181.859C427.961 187.203 420.552 203.375 419.027 203.447C417.501 203.518 408.61 188.111 408.359 182.767C408.109 177.424 412.237 172.889 417.581 172.638C422.925 172.387 427.46 176.516 427.71 181.859Z"   fill="#B9E2EF" >
</path>
<path d="M436.993 217.667C431.827 216.279 418.677 204.299 419.073 202.825C419.468 201.35 436.851 197.57 442.017 198.958C447.184 200.345 450.247 205.658 448.86 210.824C447.472 215.991 442.159 219.054 436.993 217.667Z"   fill="#B9E2EF" >
</path>
<path d="M245.904 228.165C245.934 228.152 245.962 228.137 245.989 228.117C246.208 227.964 246.261 227.663 246.107 227.445C206.131 170.388 174.025 131.389 155.705 117.63C155.298 117.325 155.004 117.104 154.88 116.984C154.688 116.799 154.383 116.805 154.197 116.996C154.012 117.187 154.017 117.493 154.209 117.678C154.376 117.84 154.658 118.052 155.125 118.402C173.366 132.101 205.397 171.023 245.317 227.999C245.451 228.19 245.698 228.255 245.904 228.165Z"   fill="#B9E2EF" >
</path>
<path d="M145.967 117.233C148.101 118.752 156.721 119.985 157.154 119.376C157.588 118.767 153.6 111.026 151.466 109.508C149.333 107.989 146.372 108.488 144.854 110.621C143.336 112.754 143.834 115.715 145.967 117.233Z"   fill="#B9E2EF" >
</path>
<path d="M162.278 118.605C162.351 121.282 166.652 129.084 167.416 129.063C168.18 129.043 172.049 121.018 171.976 118.34C171.903 115.661 169.672 113.55 166.994 113.623C164.316 113.696 162.205 115.927 162.278 118.605Z"   fill="#B9E2EF" >
</path>
<path d="M158.254 136.063C160.847 135.389 167.48 129.442 167.287 128.701C167.095 127.961 158.405 125.999 155.812 126.673C153.22 127.348 151.664 129.996 152.338 132.589C153.013 135.182 155.661 136.737 158.254 136.063Z"   fill="#B9E2EF" >
</path>
<path d="M197.903 153.405C197.54 157.888 203.306 171.685 204.585 171.788C205.864 171.892 213.772 159.2 214.134 154.718C214.497 150.236 211.157 146.309 206.674 145.946C202.192 145.583 198.265 148.923 197.903 153.405Z"   fill="#B9E2EF" >
</path>
<path d="M188.03 181.811C192.479 181.155 204.623 172.431 204.436 171.161C204.248 169.891 190.102 165.045 185.654 165.701C181.205 166.357 178.13 170.495 178.786 174.944C179.443 179.393 183.581 182.467 188.03 181.811Z"   fill="#B9E2EF" >
</path>
<path d="M214.237 165.58C212.597 170.833 215.763 188.856 217.262 189.324C218.762 189.792 231.619 176.772 233.259 171.518C234.899 166.266 231.971 160.678 226.717 159.038C221.465 157.398 215.877 160.327 214.237 165.58Z"   fill="#BDD1F9" >
</path>
<path d="M199.21 203.453C204.542 202.094 218.227 189.946 217.839 188.424C217.451 186.902 199.622 182.784 194.289 184.143C188.957 185.501 185.735 190.926 187.094 196.258C188.453 201.591 193.878 204.812 199.21 203.453Z"   fill="#B9E2EF" >
</path>
<path d="M227.932 183.968C226.292 189.221 229.458 207.244 230.957 207.712C232.456 208.18 245.314 195.159 246.954 189.906C248.594 184.654 245.665 179.066 240.412 177.426C235.159 175.786 229.572 178.715 227.932 183.968Z"   fill="#BDD1F9" >
</path>
<path d="M212.905 221.841C218.237 220.482 231.922 208.333 231.534 206.812C231.146 205.289 213.317 201.172 207.984 202.53C202.651 203.889 199.43 209.314 200.789 214.646C202.148 219.979 207.572 223.2 212.905 221.841Z"   fill="#BDD1F9" >
</path>
<path d="M251.57 204.95C248.053 209.182 244.115 227.053 245.323 228.057C246.531 229.061 263.379 221.919 266.896 217.687C270.414 213.455 269.834 207.173 265.602 203.655C261.369 200.138 255.087 200.718 251.57 204.95Z"   fill="#BDD1F9" >
</path>
<path d="M225.732 240.266C231.193 239.584 246.289 229.242 246.094 227.683C245.9 226.125 228.725 219.81 223.264 220.492C217.804 221.173 213.93 226.153 214.611 231.613C215.293 237.074 220.272 240.947 225.732 240.266Z"   fill="#BDD1F9" >
</path>
<path d="M173.306 129.461C173.38 132.182 177.75 140.109 178.527 140.088C179.303 140.066 183.234 131.913 183.16 129.192C183.085 126.471 180.819 124.326 178.098 124.4C175.377 124.474 173.232 126.74 173.306 129.461Z"   fill="#B9E2EF" >
</path>
<path d="M169.604 147.246C172.238 146.561 178.978 140.519 178.782 139.767C178.587 139.015 169.757 137.021 167.123 137.706C164.489 138.391 162.909 141.082 163.594 143.717C164.279 146.351 166.97 147.931 169.604 147.246Z"   fill="#B9E2EF" >
</path>
<path d="M184.975 139.072C184.764 142.933 190.027 154.666 191.129 154.726C192.231 154.787 198.746 143.7 198.958 139.839C199.17 135.978 196.212 132.676 192.35 132.464C188.489 132.252 185.187 135.211 184.975 139.072Z"   fill="#B9E2EF" >
</path>
<path d="M178.06 164.903C181.803 163.929 191.377 155.345 191.099 154.277C190.821 153.208 178.278 150.376 174.535 151.35C170.793 152.323 168.548 156.146 169.521 159.889C170.495 163.631 174.318 165.876 178.06 164.903Z"   fill="#B9E2EF" >
</path>
<path d="M149.553 408.782C149.567 408.782 149.581 408.781 149.596 408.778C149.712 408.757 149.789 408.645 149.767 408.528C144.073 378.145 138.249 356.5 133.368 347.582C133.259 347.384 133.181 347.241 133.153 347.17C133.109 347.06 132.985 347.006 132.875 347.049C132.765 347.093 132.711 347.217 132.754 347.327C132.792 347.423 132.867 347.561 132.992 347.788C137.852 356.667 143.66 378.267 149.346 408.607C149.365 408.709 149.453 408.781 149.553 408.782Z"   fill="#EFF6F8" >
</path>
<path d="M129.506 345.636C130.089 346.641 133.347 348.72 133.633 348.553C133.92 348.386 133.728 344.528 133.144 343.523C132.56 342.518 131.273 342.177 130.268 342.76C129.263 343.344 128.922 344.632 129.506 345.636Z"   fill="#EFF6F8" >
</path>
<path d="M135.845 349.18C135.384 350.276 135.692 354.217 136.004 354.349C136.317 354.48 139.351 351.947 139.813 350.851C140.274 349.755 139.76 348.493 138.664 348.032C137.569 347.571 136.307 348.085 135.845 349.18Z"   fill="#EFF6F8" >
</path>
<path d="M131.019 355.498C132.19 355.7 135.961 354.513 136.018 354.179C136.076 353.844 132.925 351.459 131.753 351.256C130.582 351.053 129.468 351.838 129.265 353.01C129.063 354.181 129.848 355.295 131.019 355.498Z"   fill="#EFF6F8" >
</path>
<path d="M143.861 369.773C142.893 371.518 142.693 378.15 143.191 378.427C143.689 378.703 149.211 375.024 150.179 373.279C151.147 371.534 150.518 369.335 148.773 368.367C147.028 367.399 144.829 368.029 143.861 369.773Z"   fill="#EFF6F8" >
</path>
<path d="M134.664 379.442C136.582 379.992 143.089 378.693 143.246 378.146C143.403 377.598 138.575 373.047 136.657 372.496C134.739 371.946 132.738 373.055 132.188 374.972C131.638 376.891 132.746 378.891 134.664 379.442Z"   fill="#EFF6F8" >
</path>
<path d="M148.229 377.687C146.604 379.509 144.579 387.372 145.099 387.836C145.62 388.3 153.202 385.396 154.827 383.574C156.453 381.752 156.294 378.957 154.472 377.332C152.65 375.706 149.855 375.865 148.229 377.687Z"   fill="#EFF6F8" >
</path>
<path d="M135.215 390.236C137.618 390.665 145.375 388.264 145.497 387.578C145.619 386.892 139.17 381.959 136.766 381.531C134.362 381.103 132.066 382.704 131.638 385.108C131.209 387.512 132.811 389.808 135.215 390.236Z"   fill="#EFF6F8" >
</path>
<path d="M150.393 387.628C148.767 389.45 146.743 397.313 147.262 397.777C147.783 398.241 155.365 395.337 156.99 393.515C158.616 391.693 158.457 388.898 156.635 387.272C154.813 385.647 152.018 385.806 150.393 387.628Z"   fill="#EFF6F8" >
</path>
<path d="M137.378 400.177C139.781 400.605 147.538 398.205 147.661 397.519C147.783 396.833 141.333 391.9 138.929 391.472C136.525 391.043 134.229 392.645 133.801 395.049C133.372 397.453 134.974 399.749 137.378 400.177Z"   fill="#EFF6F8" >
</path>
<path d="M156.098 400.44C153.901 401.505 149.034 408.005 149.338 408.632C149.642 409.259 157.759 409.462 159.956 408.396C162.153 407.331 163.071 404.686 162.005 402.489C160.94 400.292 158.295 399.374 156.098 400.44Z"   fill="#EFF6F8" >
</path>
<path d="M139.184 409.974C141.515 410.699 149.511 409.288 149.718 408.622C149.925 407.957 144.143 402.257 141.812 401.531C139.48 400.805 137.002 402.107 136.276 404.439C135.55 406.77 136.852 409.248 139.184 409.974Z"   fill="#EFF6F8" >
</path>
<path d="M138.311 355.589C137.842 356.702 138.155 360.706 138.473 360.84C138.79 360.974 141.873 358.4 142.342 357.287C142.811 356.174 142.288 354.891 141.175 354.422C140.062 353.954 138.78 354.476 138.311 355.589Z"   fill="#EFF6F8" >
</path>
<path d="M133.555 362.097C134.745 362.303 138.576 361.097 138.635 360.757C138.694 360.417 135.492 357.993 134.302 357.787C133.112 357.581 131.98 358.379 131.774 359.569C131.568 360.759 132.365 361.891 133.555 362.097Z"   fill="#EFF6F8" >
</path>
<path d="M141.265 361.612C140.471 363.133 140.447 368.839 140.882 369.066C141.316 369.292 145.981 366.006 146.774 364.485C147.568 362.964 146.978 361.087 145.456 360.294C143.935 359.5 142.058 360.09 141.265 361.612Z"   fill="#EFF6F8" >
</path>
<path d="M133.736 370.782C135.426 371.075 140.869 369.361 140.952 368.878C141.036 368.396 136.486 364.952 134.796 364.659C133.105 364.367 131.497 365.5 131.204 367.19C130.911 368.881 132.045 370.489 133.736 370.782Z"   fill="#EFF6F8" >
</path>
<path d="M459.589 404.267C459.569 404.268 459.548 404.266 459.527 404.262C459.361 404.231 459.251 404.071 459.282 403.904C467.443 360.361 475.789 329.343 482.784 316.563C482.939 316.279 483.052 316.074 483.092 315.972C483.154 315.814 483.333 315.737 483.49 315.799C483.648 315.862 483.725 316.04 483.663 316.198C483.609 316.335 483.501 316.532 483.323 316.858C476.358 329.582 468.035 360.536 459.885 404.017C459.858 404.163 459.732 404.265 459.589 404.267Z"   fill="#EFF6F8" >
</path>
<path d="M488.318 313.775C487.482 315.214 482.814 318.193 482.403 317.954C481.992 317.716 482.268 312.186 483.104 310.746C483.941 309.306 485.786 308.817 487.226 309.653C488.666 310.49 489.155 312.335 488.318 313.775Z"   fill="#EFF6F8" >
</path>
<path d="M479.233 318.854C479.895 320.424 479.454 326.071 479.005 326.26C478.557 326.449 474.209 322.818 473.548 321.248C472.886 319.678 473.623 317.869 475.193 317.208C476.763 316.547 478.572 317.284 479.233 318.854Z"   fill="#EFF6F8" >
</path>
<path d="M486.15 327.906C484.471 328.197 479.068 326.496 478.985 326.017C478.902 325.537 483.419 322.118 485.097 321.828C486.776 321.537 488.372 322.662 488.663 324.341C488.954 326.02 487.829 327.616 486.15 327.906Z"   fill="#EFF6F8" >
</path>
<path d="M467.746 348.365C469.133 350.866 469.419 360.37 468.706 360.766C467.992 361.162 460.079 355.89 458.691 353.389C457.304 350.889 458.206 347.737 460.707 346.35C463.207 344.963 466.359 345.865 467.746 348.365Z"   fill="#EFF6F8" >
</path>
<path d="M480.926 362.221C478.177 363.009 468.853 361.148 468.627 360.363C468.402 359.579 475.321 353.056 478.069 352.267C480.818 351.479 483.686 353.067 484.474 355.816C485.263 358.564 483.674 361.432 480.926 362.221Z"   fill="#EFF6F8" >
</path>
<path d="M461.486 359.706C463.815 362.317 466.716 373.586 465.971 374.251C465.226 374.916 454.36 370.753 452.03 368.143C449.7 365.531 449.929 361.526 452.54 359.197C455.151 356.867 459.156 357.095 461.486 359.706Z"   fill="#EFF6F8" >
</path>
<path d="M480.137 377.69C476.692 378.304 465.576 374.864 465.401 373.881C465.226 372.898 474.469 365.829 477.914 365.215C481.359 364.601 484.649 366.896 485.263 370.341C485.877 373.786 483.582 377.077 480.137 377.69Z"   fill="#EFF6F8" >
</path>
<path d="M458.385 373.952C460.715 376.563 463.616 387.832 462.871 388.497C462.126 389.161 451.26 384.999 448.93 382.388C446.6 379.777 446.829 375.772 449.44 373.443C452.051 371.113 456.056 371.341 458.385 373.952Z"   fill="#EFF6F8" >
</path>
<path d="M477.037 391.937C473.592 392.55 462.476 389.11 462.301 388.127C462.125 387.144 471.369 380.075 474.814 379.461C478.258 378.847 481.549 381.142 482.163 384.587C482.777 388.032 480.482 391.323 477.037 391.937Z"   fill="#EFF6F8" >
</path>
<path d="M450.209 392.313C453.357 393.84 460.332 403.154 459.897 404.052C459.461 404.951 447.828 405.242 444.68 403.715C441.531 402.188 440.216 398.397 441.743 395.249C443.27 392.101 447.06 390.786 450.209 392.313Z"   fill="#EFF6F8" >
</path>
<path d="M474.449 405.976C471.108 407.015 459.65 404.992 459.353 404.038C459.056 403.085 467.343 394.916 470.684 393.876C474.025 392.836 477.577 394.702 478.616 398.043C479.656 401.385 477.791 404.936 474.449 405.976Z"   fill="#EFF6F8" >
</path>
<path d="M475.699 328.038C476.371 329.633 475.923 335.371 475.468 335.563C475.013 335.755 470.595 332.066 469.923 330.471C469.251 328.875 470 327.038 471.595 326.366C473.19 325.694 475.028 326.443 475.699 328.038Z"   fill="#EFF6F8" >
</path>
<path d="M482.515 337.364C480.81 337.659 475.32 335.931 475.235 335.444C475.151 334.957 479.74 331.484 481.446 331.188C483.151 330.893 484.773 332.036 485.068 333.741C485.364 335.447 484.22 337.069 482.515 337.364Z"   fill="#EFF6F8" >
</path>
<path d="M471.467 336.669C472.604 338.849 472.638 347.026 472.016 347.351C471.393 347.675 464.708 342.967 463.571 340.786C462.434 338.606 463.279 335.917 465.46 334.78C467.64 333.642 470.33 334.489 471.467 336.669Z"   fill="#EFF6F8" >
</path>
<path d="M482.257 349.81C479.834 350.23 472.034 347.774 471.915 347.082C471.795 346.391 478.315 341.455 480.737 341.036C483.16 340.617 485.465 342.24 485.884 344.663C486.304 347.086 484.68 349.391 482.257 349.81Z"   fill="#EFF6F8" >
</path>
<ellipse cx="318.4736022949219" cy="422.9561939239502" rx="302.3105163574219" ry="22.885149002075195"   fill="#B9E2EF" >
</ellipse>
<path d="M270.841 364.445C270.841 364.445 279.861 295.687 160.366 299.988C160.366 299.988 210.259 412.584 270.841 364.445Z"   fill="#2EC2D8" >
</path>
<path d="M160.159 299.865L270.463 355.71C268.307 337.399 253.133 296.518 160.159 299.865Z"   fill="#EFF6F8" >
</path>
<path d="M265.884 353.538C265.926 353.52 265.963 353.487 265.985 353.444C266.035 353.344 265.995 353.223 265.896 353.173L160.251 299.685C160.151 299.635 160.03 299.676 159.98 299.774C159.929 299.873 159.969 299.994 160.068 300.045L265.714 353.532C265.769 353.56 265.831 353.56 265.884 353.538Z"   fill="#0D3039" >
</path>
<path d="M215.39 327.973C215.481 327.934 215.532 327.833 215.506 327.735C215.476 327.627 215.366 327.564 215.258 327.593L183.524 336.25C183.417 336.272 183.353 336.389 183.383 336.496C183.412 336.604 183.523 336.667 183.63 336.638L215.364 327.982C215.373 327.98 215.382 327.976 215.39 327.973Z"   fill="#0D3039" >
</path>
<path d="M238.02 339.431C238.032 339.426 238.045 339.419 238.056 339.411C238.147 339.348 238.171 339.223 238.108 339.131L219.867 312.487C219.804 312.395 219.677 312.371 219.587 312.434C219.495 312.497 219.471 312.622 219.534 312.715L237.775 339.359C237.831 339.439 237.934 339.467 238.02 339.431Z"   fill="#0D3039" >
</path>
<path d="M267.45 389.3C267.45 389.3 256.34 338.25 172.706 371.722C172.706 371.722 236.749 438.857 267.45 389.3Z"   fill="#B9E2EF" >
</path>
<path d="M172.706 371.722L267.45 389.3C267.45 389.3 245.472 440.999 172.706 371.722Z"   fill="#2EC2D8" >
</path>
<path d="M198.063 385.796C198.077 385.794 198.089 385.791 198.102 385.788L219.531 379.855C219.694 379.81 219.789 379.642 219.744 379.48C219.699 379.318 219.529 379.225 219.369 379.268L197.94 385.2C197.777 385.246 197.682 385.413 197.727 385.576C197.768 385.725 197.915 385.818 198.063 385.796Z"   fill="#B9E2EF" >
</path>
<path d="M229.93 398.378C229.953 398.374 229.975 398.368 229.998 398.36L257.425 387.704C257.582 387.643 257.66 387.466 257.599 387.31C257.538 387.153 257.363 387.074 257.204 387.136L229.776 397.792C229.62 397.853 229.542 398.029 229.603 398.186C229.655 398.321 229.793 398.397 229.93 398.378Z"   fill="#B9E2EF" >
</path>
<path d="M326.639 381.212C326.639 381.212 300.618 298.329 448.987 277.754C448.987 277.754 411.813 427.485 326.639 381.212Z"   fill="#2EC2D8" >
</path>
<path d="M449.214 277.557L325.214 370.353C323.907 347.292 333.775 293.566 449.214 277.557Z"   fill="#EFF6F8" >
</path>
<path d="M330.393 366.68C330.337 366.667 330.285 366.635 330.247 366.586C330.164 366.474 330.187 366.316 330.298 366.232L449.062 277.355C449.174 277.273 449.333 277.296 449.415 277.406C449.499 277.518 449.476 277.676 449.365 277.76L330.601 366.636C330.539 366.682 330.463 366.696 330.393 366.68Z"   fill="#0D3039" >
</path>
<path d="M387.157 324.201C387.036 324.173 386.951 324.059 386.963 323.932C386.976 323.793 387.099 323.691 387.237 323.704L428.267 327.511C428.404 327.516 428.508 327.646 428.495 327.785C428.482 327.924 428.359 328.026 428.221 328.013L387.191 324.206C387.179 324.206 387.168 324.203 387.157 324.201Z"   fill="#0D3039" >
</path>
<path d="M361.718 343.239C361.702 343.235 361.685 343.23 361.669 343.223C361.543 343.165 361.487 343.015 361.544 342.889L378.28 306.063C378.338 305.936 378.49 305.878 378.614 305.937C378.741 305.995 378.797 306.145 378.74 306.272L362.004 343.097C361.953 343.208 361.832 343.265 361.718 343.239Z"   fill="#0D3039" >
</path>
<path d="M325.99 390.55C325.99 390.55 343.277 335.045 432.722 380.292C432.722 380.292 355.194 448.472 325.99 390.55Z"   fill="#B9E2EF" >
</path>
<path d="M432.722 380.293L325.99 390.55C325.99 390.55 345.317 449.997 432.722 380.293Z"   fill="#2EC2D8" >
</path>
<path d="M403.244 393.424C403.23 393.421 403.216 393.417 403.202 393.411L380.026 384.748C379.851 384.682 379.762 384.487 379.827 384.311C379.893 384.135 380.09 384.05 380.263 384.112L403.439 392.776C403.615 392.841 403.704 393.037 403.638 393.212C403.578 393.374 403.407 393.462 403.244 393.424Z"   fill="#B9E2EF" >
</path>
<path d="M366.695 404.266C366.67 404.26 366.646 404.252 366.622 404.24L337.257 389.757C337.089 389.674 337.02 389.471 337.103 389.303C337.186 389.135 337.387 389.064 337.557 389.149L366.922 403.632C367.09 403.714 367.159 403.918 367.077 404.086C367.005 404.23 366.845 404.301 366.695 404.266Z"   fill="#B9E2EF" >
</path>
<path d="M77.479 228.345C77.3026 230.999 78.3297 233.724 77.5913 236.279C76.6129 239.663 72.919 241.542 71.35 244.695C69.7069 247.998 70.5706 252.337 68.2467 255.201C67.4204 256.221 66.2702 256.929 65.3915 257.903C63.3641 260.15 63.1227 263.81 64.8372 266.304C66.7467 269.081 70.4312 270.053 73.8011 270.034C77.1714 270.014 80.5155 269.219 83.8821 269.379C87.3061 269.541 90.655 270.688 94.0814 270.576C98.824 270.421 103.265 267.798 106.345 264.189C109.425 260.579 111.269 256.061 112.446 251.464C112.894 249.712 113.255 247.93 113.354 246.124C113.741 239.093 110.178 232.453 106.059 226.741C104.178 224.133 102.052 221.539 99.139 220.176C92.5261 217.083 78.0883 219.167 77.479 228.345Z"   fill="#0D3039" >
</path>
<path d="M110.397 404.276C110.397 404.276 109.192 416.169 111.62 417.518C116.018 419.961 124.128 422.291 123.449 424.389C122.77 426.488 103.33 426.569 102.79 424.656C102.25 422.743 104.429 416.888 102.12 405.492L110.397 404.276Z"   fill="#56300D" >
</path>
<path d="M102.984 420.385C102.777 422.514 102.598 423.975 102.79 424.656C103.329 426.569 122.77 426.488 123.449 424.389C123.953 422.833 119.66 421.079 115.586 419.332C114.622 420.95 112.568 423.472 102.984 420.385Z"   fill="#0D3039" >
</path>
<path d="M73.9337 403.934C73.9337 403.934 70.7219 415.449 72.8847 417.192C76.8016 420.348 84.3971 424.025 83.3705 425.977C82.3442 427.929 63.1741 424.699 62.9677 422.722C62.7619 420.745 65.9054 415.347 65.571 403.724L73.9337 403.934Z"   fill="#56300D" >
</path>
<path d="M63.8865 418.546C63.3201 420.609 62.8944 422.018 62.9677 422.722C63.1741 424.699 82.3442 427.929 83.3705 425.977C84.1319 424.529 80.2006 422.07 76.4835 419.655C75.2587 421.085 72.8054 423.22 63.8865 418.546Z"   fill="#0D3039" >
</path>
<path d="M117.83 267.939C117.83 267.939 121.913 273.408 125.317 273.408C128.719 273.408 140.29 258.945 140.29 258.945L143.013 263.326C143.013 263.326 133.314 284.468 124.466 284.638C115.618 284.808 108.981 274.939 109.152 274.429C109.322 273.918 114.937 267.939 114.937 267.939L117.83 267.939Z"   fill="#56300D" >
</path>
<path d="M108.131 298.846C108.131 298.846 113.411 305.243 115.793 312.73C118.175 320.217 111.856 408.921 111.856 408.921L101.305 408.921C101.305 408.921 95.7091 329.925 95.7091 329.224C95.7091 326.465 74.9342 408.921 74.9342 408.921L64.4004 408.921C64.4004 408.921 70.1006 312.374 83.3301 298.846L95.7091 299.612L108.131 298.846Z"   fill="#49A0BB" >
</path>
<path d="M108.131 295.528L108.131 298.846C108.131 298.846 101.835 304.972 83.33 298.846L83.2876 295.528L99.5376 294.507L108.131 295.528Z"   fill="#0D3039" >
</path>
<path d="M101.84 255.508C101.84 255.508 108.397 255.265 111.725 257.562C114.106 259.205 119.361 268.473 119.361 268.473L113.328 273.601C113.328 273.601 114.767 279.193 109.148 282L108.131 295.528C108.131 295.528 97.5807 301.654 83.2877 295.528C83.2877 295.528 80.5655 270.175 78.0129 272.387C75.4605 274.599 73.9292 276.556 73.9292 276.556L64.4004 267.112C64.4004 267.112 74.7884 256.705 78.2256 255.073C86.291 251.245 92.8122 254.928 92.8122 254.928L101.84 255.508Z"   fill="#FFFFFF" >
</path>
<path d="M73.0374 275.672C73.0374 275.672 67.5059 282.128 68.144 283.915C68.7821 285.701 78.5478 300.414 79.8546 303.203C81.1611 305.993 80.7781 307.652 80.7781 307.652L75.8012 310.076C75.8012 310.076 75.5423 306.138 74.4593 304.981C73.3763 303.823 56.9139 286.85 57.2966 281.49C57.6793 276.13 65.2348 267.939 65.2348 267.939L73.0374 275.672Z"   fill="#56300D" >
</path>
<path d="M104.718 234.753C104.718 234.753 105.439 233.337 106.189 233.794C108.101 234.959 106.408 236.988 105.282 237.512L104.718 234.753Z"   fill="#56300D" >
</path>
<path d="M91.8347 220.045C86.4994 221.01 82.6678 225.902 82.9984 231.315C83.107 233.094 83.638 234.735 84.4791 236.157C86.3855 239.724 87.9527 242.594 89.7238 244.612C91.5193 246.657 92.5327 249.271 92.4562 251.991L92.3788 254.739C98.9777 257.146 101.555 255.49 101.555 255.49L100.638 247.471C107.298 245.894 104.974 233.538 104.553 229.855L104.543 229.858C104.532 229.719 104.522 229.581 104.506 229.442C103.801 223.279 98.0388 218.923 91.8347 220.045Z"   fill="#56300D" >
</path>
<path d="M92.2294 230.993C90.5977 233.438 88.8416 235.853 87.7241 238.564C87.6002 238.862 86.7375 241.097 87.0841 241.302C85.1922 240.179 83.8522 238.332 82.6873 236.465C80.6683 233.229 80.6733 229.064 82.3019 225.67C83.912 222.313 87.029 220.309 90.6299 219.598C94.4913 218.835 98.894 219.657 101.649 222.638C104.234 225.436 104.777 229.286 105.447 232.879C104.695 228.846 98.8816 226.438 95.4418 225.376C95.5419 225.407 93.4063 229.167 93.2911 229.353C92.9491 229.903 92.5921 230.449 92.2294 230.993Z"   fill="#0D3039" >
</path>
<path d="M88.0952 238.79C87.8822 238.463 87.5498 238.232 87.1735 238.129C86.3983 237.915 85.0547 237.738 84.2595 238.739C83.0921 240.207 86.1421 243.397 88.564 241.361C88.564 241.361 89.2272 240.527 88.0952 238.79Z"   fill="#56300D" >
</path>
<path d="M102.953 235.057C102.945 234.537 102.515 234.122 101.995 234.131C101.474 234.14 101.06 234.57 101.069 235.09C101.078 235.61 101.507 236.025 102.027 236.016C102.548 236.007 102.962 235.578 102.953 235.057Z"   fill="#0D3039" >
</path>
<path d="M94.2286 237.058C94.2197 236.538 93.7906 236.123 93.2701 236.132C92.75 236.142 92.3352 236.571 92.3439 237.091C92.3531 237.611 92.7825 238.026 93.3025 238.017C93.823 238.008 94.2376 237.579 94.2286 237.058Z"   fill="#0D3039" >
</path>
<path d="M102.011 241.664C102.011 241.664 100.771 240.768 100.295 240.917C99.8185 241.066 99.5726 241.656 99.5726 241.656C99.5726 241.656 99.2663 241.086 98.6804 241.097C98.0945 241.107 96.8818 242.725 96.8818 242.725C96.8818 242.725 98.6314 245.249 100.394 244.867C102.189 244.479 101.994 241.795 101.994 241.795L102.011 241.664Z"   fill="#DC4E4A" >
</path>
<path d="M91.2823 235.979C91.1705 235.993 91.054 235.96 90.9657 235.878C90.8073 235.73 90.7983 235.482 90.946 235.324C90.9897 235.276 92.0571 234.161 93.8046 234.016C94.0199 233.998 94.2097 234.158 94.2279 234.374C94.2461 234.589 94.0682 234.784 93.8705 234.796C92.4146 234.919 91.5284 235.848 91.5195 235.858C91.4543 235.927 91.37 235.968 91.2823 235.979Z"   fill="#0D3039" >
</path>
<path d="M100.274 233.206C100.162 233.194 100.057 233.133 99.9906 233.032C99.8714 232.851 99.9212 232.609 100.102 232.489C100.156 232.454 101.441 231.62 103.188 231.895C103.403 231.929 103.549 232.129 103.516 232.343C103.482 232.556 103.274 232.703 103.068 232.669C101.622 232.442 100.544 233.137 100.533 233.144C100.453 233.196 100.362 233.216 100.274 233.206Z"   fill="#0D3039" >
</path>
<path d="M98.8506 240.144C99.9376 239.849 100.211 238.975 100.19 238.492C100.187 238.408 100.15 238.328 100.09 238.269C98.9582 237.172 98.8578 235.386 98.8572 235.368C98.8483 235.186 98.6938 235.046 98.512 235.054C98.3325 235.062 98.1899 235.217 98.1983 235.399C98.2023 235.48 98.3022 237.352 99.5235 238.635C99.4885 238.901 99.2887 239.51 98.231 239.578C98.0457 239.591 97.9108 239.746 97.9226 239.928C97.9348 240.11 98.0916 240.248 98.2732 240.236C98.4872 240.222 98.6791 240.19 98.8506 240.144Z"   fill="#724000" >
</path>
<path d="M102.011 241.664L96.8818 242.725C96.8818 242.725 98.8019 243.985 100.194 243.776C101.586 243.567 102.011 241.664 102.011 241.664Z"   fill="#FED7C9" >
</path>
<path d="M78.0418 300.305C78.0418 300.305 82.3631 306.368 81.9234 307.777C81.4835 309.185 79.6322 313.152 79.4891 313.85C79.3462 314.548 79.433 318.302 79.0508 318.885C78.6684 319.467 77.7485 314.858 77.7485 314.858C77.7485 314.858 77.9812 318.9 77.2765 319.154C76.5719 319.408 75.9467 315.094 75.9467 315.094C75.9467 315.094 76.3126 319.183 75.6228 319.207C74.9328 319.231 74.5232 315.262 74.5232 315.262C74.5232 315.262 74.7628 318.442 74.2149 318.449C73.6674 318.456 72.4495 313.254 73.5211 311.425C76.053 307.105 75.3097 304.794 75.3097 304.794L78.0418 300.305Z"   fill="#56300D" >
</path>
<path d="M80.8224 304.674C80.8224 304.674 82.9689 308.277 82.9958 309.65C83.0229 311.023 83.4175 313.81 82.8289 313.802C82.2404 313.794 81.4381 309.936 81.014 309.773C80.5899 309.609 80.582 307.865 80.582 307.865L80.8224 304.674Z"   fill="#56300D" >
</path>
<path d="M91.8808 280.136C87.0947 280.136 85.0997 275.352 85.0805 275.304C85.0436 275.213 85.0873 275.11 85.1777 275.073C85.2676 275.036 85.3717 275.079 85.4086 275.17C85.4276 275.217 87.3366 279.781 91.8808 279.781C96.4413 279.781 98.198 276.466 98.2149 276.432C98.2599 276.346 98.3664 276.311 98.4537 276.356C98.5406 276.4 98.5749 276.507 98.5304 276.594C98.5122 276.63 96.6554 280.136 91.8808 280.136Z"   fill="#0D3039" >
</path>
<path d="M113.327 273.779C113.239 273.779 113.162 273.712 113.152 273.622C113.148 273.59 112.736 270.394 110.264 268.068C110.192 268 110.189 267.888 110.256 267.817C110.324 267.746 110.436 267.743 110.507 267.81C113.077 270.227 113.487 273.444 113.504 273.58C113.515 273.678 113.446 273.765 113.349 273.777C113.342 273.778 113.335 273.779 113.327 273.779Z"   fill="#0D3039" >
</path>
<path d="M99.3978 302.943C97.6767 302.943 96.2764 301.542 96.2764 299.821C96.2764 298.1 97.6767 296.699 99.3978 296.699C101.119 296.699 102.519 298.1 102.519 299.821C102.519 301.542 101.119 302.943 99.3978 302.943ZM99.3978 298.118C98.4587 298.118 97.6944 298.882 97.6944 299.821C97.6944 300.76 98.4587 301.525 99.3978 301.525C100.337 301.525 101.101 300.76 101.101 299.821C101.101 298.882 100.337 298.118 99.3978 298.118Z"   fill="#B9E2EF" >
</path>
<path d="M139.227 260.246C139.227 260.246 143.385 254.21 144.861 254.199C146.337 254.189 150.679 254.743 151.387 254.667C152.095 254.59 155.645 253.363 156.316 253.55C156.987 253.736 152.878 256.017 152.878 256.017C152.878 256.017 156.657 254.563 157.114 255.157C157.57 255.751 153.652 257.661 153.652 257.661C153.652 257.661 157.435 256.066 157.668 256.716C157.901 257.366 154.246 258.966 154.246 258.966C154.246 258.966 157.202 257.768 157.376 258.288C157.549 258.807 152.966 261.553 150.897 261.09C146.011 259.995 143.012 263.326 143.012 263.326L139.227 260.246Z"   fill="#56300D" >
</path>
<path d="M141.913 256.716C141.913 256.716 145.019 253.051 146.319 252.607C147.618 252.162 150.152 250.937 150.324 251.5C150.496 252.063 147.066 254.003 147.039 254.457C147.013 254.91 145.354 255.45 145.354 255.45L141.913 256.716Z"   fill="#56300D" >
</path>
<path d="M392.59 214.068C392.59 164.568 349.136 124.44 295.531 124.44C241.927 124.44 198.473 164.568 198.473 214.068C198.473 238.077 208.696 259.881 225.341 275.969C240.421 290.547 249.092 310.514 249.092 331.487C249.092 348.456 262.847 362.211 279.816 362.211L311.248 362.211C328.216 362.211 341.971 348.456 341.971 331.487C341.971 310.514 350.642 290.547 365.722 275.969C382.367 259.881 392.59 238.077 392.59 214.068Z"   fill="#DC4E4A" >
</path>
<path d="M312.554 373.372C311.952 373.372 311.448 372.899 311.414 372.29C310.879 362.301 326.024 206.202 326.669 199.562C326.729 198.933 327.283 198.47 327.917 198.535C328.545 198.596 329.005 199.154 328.944 199.783C328.786 201.407 313.17 362.349 313.697 372.167C313.731 372.798 313.248 373.336 312.617 373.369C312.596 373.371 312.576 373.372 312.554 373.372Z"   fill="#0D3039" >
</path>
<path d="M277.639 373.371C277.618 373.371 277.598 373.371 277.576 373.369C276.947 373.336 276.463 372.797 276.497 372.167C277.026 362.348 261.408 201.407 261.251 199.783C261.189 199.154 261.649 198.596 262.277 198.535C262.908 198.471 263.464 198.933 263.525 199.562C264.17 206.202 279.316 362.3 278.78 372.29C278.746 372.899 278.242 373.371 277.639 373.371Z"   fill="#0D3039" >
</path>
<path d="M292.163 239.573C289.207 239.573 286.138 238.521 283.598 236.552C281.759 237.869 279.547 238.691 277.162 238.473C273.921 238.181 270.794 235.958 268.797 232.526C267.08 229.572 264.359 219.508 263.626 216.044C263.56 215.736 263.758 215.432 264.066 215.367C264.368 215.303 264.678 215.498 264.744 215.808C265.504 219.398 268.197 229.221 269.786 231.952C271.597 235.064 274.392 237.076 277.265 237.334C279.244 237.514 281.113 236.865 282.697 235.794C282.693 235.789 282.687 235.784 282.682 235.78C278.502 231.955 276.945 226.59 276.376 222.763C275.661 217.956 276.269 213.966 278.184 210.901C279.072 209.48 280.126 208.511 281.315 208.02C284.359 206.764 287.896 208.926 289.281 211.74C290.649 214.518 290.515 217.693 290.261 220.706C289.945 224.452 289.433 228.752 287.355 232.391C286.657 233.611 285.69 234.811 284.524 235.821C288.033 238.428 292.548 239.177 296.14 237.65C297.655 237.006 299.016 235.969 300.149 234.635C298.712 233.766 297.536 232.552 296.832 231.075C296.024 229.384 295.827 227.519 295.733 225.757C295.451 220.471 296.026 215.204 297.444 210.103C297.495 209.918 297.636 209.771 297.817 209.712C299.612 209.131 301.424 210.208 302.353 211.454C303.319 212.746 303.685 214.338 303.978 215.857C304.673 219.451 305.34 224.149 304.312 228.633C303.831 230.729 302.993 232.638 301.879 234.252C303.833 235.081 306.153 235.266 308.309 234.599C309.472 234.241 310.581 233.669 311.601 232.917C310.816 231.718 310.265 230.441 309.903 229.441C306.992 221.379 307.244 212.23 310.593 204.341C310.655 204.193 310.778 204.078 310.93 204.025C313.392 203.167 315.962 204.688 317.23 206.636C318.535 208.643 318.817 211.084 318.977 213.213C319.258 216.93 319.371 221.777 317.727 226.306C316.734 229.051 315.14 231.4 313.175 233.116C314.164 234.344 315.474 235.357 317.142 235.498C318.527 235.606 319.755 235.084 320.547 234.621C323.301 233.009 324.933 229.552 324.425 226.4C324.375 226.089 324.586 225.795 324.897 225.745C325.213 225.694 325.502 225.907 325.552 226.218C326.143 229.875 324.321 233.736 321.125 235.607C319.784 236.391 318.378 236.747 317.047 236.635C314.996 236.464 313.434 235.29 312.271 233.841C311.149 234.667 309.929 235.296 308.645 235.692C306.143 236.463 303.435 236.21 301.18 235.179C299.902 236.743 298.338 237.958 296.587 238.702C295.204 239.289 293.698 239.573 292.163 239.573ZM283.211 208.791C282.719 208.791 282.228 208.88 281.751 209.076C280.787 209.475 279.913 210.292 279.153 211.507C277.411 214.294 276.842 218.128 277.506 222.594C278.048 226.238 279.52 231.338 283.455 234.936C283.511 234.989 283.568 235.041 283.627 235.091C284.754 234.144 285.692 232.994 286.362 231.823C288.326 228.387 288.817 224.234 289.123 220.61C289.363 217.756 289.495 214.76 288.257 212.244C287.324 210.35 285.262 208.791 283.211 208.791ZM298.457 210.728C297.137 215.61 296.605 220.644 296.873 225.696C296.961 227.341 297.141 229.071 297.863 230.583C298.491 231.898 299.551 232.973 300.848 233.735C301.926 232.212 302.737 230.39 303.198 228.378C304.178 224.103 303.529 219.557 302.855 216.074C302.588 214.684 302.259 213.236 301.438 212.137C300.777 211.253 299.563 210.531 298.457 210.728ZM311.541 205.032C308.402 212.603 308.194 221.342 310.979 229.053C311.255 229.822 311.756 231.026 312.505 232.186C314.288 230.603 315.739 228.442 316.654 225.917C318.222 221.593 318.11 216.902 317.837 213.299C317.687 211.311 317.432 209.04 316.272 207.259C315.313 205.786 313.371 204.55 311.541 205.032Z"   fill="#0D3039" >
</path>
<path     fill="#49A0BB"  d="M256.522 389.146L334.54 389.146L334.54 403.277C334.54 407.783 330.887 411.437 326.38 411.437L264.681 411.437C260.175 411.437 256.522 407.784 256.522 403.278L256.522 389.146Z">
</path>
<path d="M300.331 399.929C277.356 399.929 256.901 393.38 255.608 392.957C251.707 391.684 249.578 387.489 250.852 383.588C252.125 379.687 256.32 377.559 260.222 378.832C260.908 379.051 303.313 392.504 329.824 379.248C333.496 377.413 337.959 378.901 339.793 382.571C341.628 386.242 340.141 390.705 336.471 392.54C325.366 398.092 312.493 399.929 300.331 399.929Z"   fill="#0D3039" >
</path>
<path d="M300.331 387.855C277.356 387.855 256.901 381.306 255.608 380.883C251.707 379.61 249.578 375.415 250.852 371.514C252.125 367.614 256.32 365.481 260.222 366.757C260.908 366.978 303.313 380.431 329.824 367.175C333.496 365.339 337.959 366.827 339.793 370.497C341.628 374.168 340.141 378.631 336.471 380.466C325.366 386.018 312.493 387.855 300.331 387.855Z"   fill="#49A0BB" >
</path>
<path d="M300.331 375.781C277.356 375.781 256.901 369.232 255.608 368.809C251.707 367.536 249.578 363.341 250.852 359.44C252.125 355.539 256.32 353.409 260.222 354.683C260.908 354.904 303.313 368.356 329.824 355.101C333.496 353.265 337.959 354.753 339.793 358.422C341.628 362.093 340.141 366.557 336.471 368.392C325.366 373.944 312.493 375.781 300.331 375.781Z"   fill="#0D3039" >
</path>
<path d="M372.097 180.852C372.097 180.852 370.963 188.785 373.796 192.752C376.63 196.719 382.486 202.386 380.974 203.897C379.464 205.408 362.652 196.908 363.03 195.019C363.408 193.13 366.052 185.385 365.485 180.852L372.097 180.852Z"   fill="#FED7C9" >
</path>
<path d="M364.048 191.181C363.586 192.929 363.164 194.346 363.03 195.019C362.652 196.908 379.464 205.408 380.974 203.897C382.095 202.776 379.164 199.37 376.418 196.066C374.874 197.037 370.958 198.071 364.048 191.181Z"   fill="#0D3039" >
</path>
<path d="M355.502 182.135C355.502 182.135 354.368 190.068 357.202 194.035C360.035 198.002 365.891 203.669 364.38 205.18C362.869 206.691 346.057 198.191 346.435 196.302C346.813 194.413 349.457 186.668 348.89 182.135L355.502 182.135Z"   fill="#FED7C9" >
</path>
<path d="M353.189 43.945C356.97 47.0237 358.852 52.2666 357.891 57.047C357.107 60.9425 354.601 64.6264 355.229 68.5499C355.464 70.0203 356.131 71.3819 356.558 72.8086C357.292 75.2608 357.299 77.9255 356.578 80.3817C356.082 82.0722 355.194 83.7237 353.735 84.7116C352.737 85.3868 351.547 85.7068 350.375 85.9836C347.836 86.5827 345.221 87.0326 342.627 86.7561C340.034 86.4793 337.44 85.4003 335.785 83.385C334.671 82.0287 333.897 80.2072 332.254 79.5889C331.692 79.377 331.083 79.3353 330.483 79.2955C328.159 79.1413 325.799 78.9898 323.523 79.4803C321.096 80.0032 318.814 81.2456 316.334 81.335C312.787 81.4628 309.324 78.8836 308.431 75.4487C307.538 72.0142 309.307 68.0752 312.466 66.4592C314.968 65.1799 318.29 65.1232 319.934 62.8434C321.311 60.9309 320.875 58.223 321.931 56.115C323.765 52.4503 328.947 52.2152 332.092 49.5888C335.139 47.0459 336.534 43.2502 340.416 41.6235C344.474 39.9224 349.892 41.2608 353.189 43.945Z"   fill="#FF6E4B" >
</path>
<path d="M315.681 117.141C315.681 117.141 311.704 136.465 318.037 139.188C324.37 141.91 345.665 146.702 346.938 150.599C348.212 154.497 346.938 186.285 346.938 186.285L357.07 186.585C357.07 186.585 360.237 150.683 359.941 147.199C359.26 139.188 357.044 137.186 357.044 137.186C357.044 137.186 361.75 140.147 363.023 147.073C363.588 150.146 363.597 183.341 363.597 183.341L373.723 183.638C373.723 183.638 380.661 139.315 372.916 133.221C365.172 127.127 343.953 118.299 343.953 118.299L315.681 117.141Z"   fill="#49A0BB" >
</path>
<path d="M355.281 91.2956L359.941 110.093L352.637 111.856C352.637 111.856 347.851 103.611 346.214 95.9589C344.577 88.3067 355.281 91.2956 355.281 91.2956Z"   fill="#FED7C9" >
</path>
<path d="M339.477 71.6843C339.477 71.6843 347.6 73.5733 351.189 78.2957C354.778 83.018 357.045 93.2184 357.045 93.2184L349.3 95.6738C349.3 95.6738 348.922 101.341 345.333 102.852C345.333 102.852 343.066 111.73 345.333 119.286C345.333 119.286 326.255 124.952 314.543 119.286L313.599 93.5963L306.421 90.574C306.421 90.574 310.199 74.14 319.077 71.6843C327.955 69.2287 334.589 69.9843 339.477 71.6843Z"   fill="#B9E2EF" >
</path>
<path d="M308.135 91.2957L318.038 95.2018C318.038 95.2018 315.681 103.281 316.439 107.385C317.645 113.92 326.688 120.538 331.128 120.254L330.926 124.175C330.926 124.175 308.876 122.78 306.421 110.408C303.965 98.0354 308.135 91.2957 308.135 91.2957Z"   fill="#FED7C9" >
</path>
<path d="M349.3 95.8053L349.297 95.8053C349.224 95.8037 349.167 95.7436 349.169 95.6708C349.23 92.974 346.854 89.4551 346.83 89.4198C346.79 89.36 346.805 89.2785 346.865 89.2377C346.925 89.1971 347.006 89.2119 347.047 89.2722C347.147 89.4188 349.494 92.8963 349.431 95.6769C349.43 95.7486 349.371 95.8053 349.3 95.8053Z"   fill="#485F73" >
</path>
<path d="M330.059 98.9695C328.041 98.9695 325.575 98.2974 322.958 96.0584C322.903 96.0117 322.897 95.9287 322.944 95.8736C322.991 95.8185 323.073 95.8125 323.129 95.8594C329.491 101.301 334.905 97.2798 334.959 97.2386C335.016 97.1946 335.098 97.2054 335.142 97.2632C335.186 97.3206 335.176 97.4031 335.118 97.4469C335.085 97.4724 333.07 98.9695 330.059 98.9695Z"   fill="#485F73" >
</path>
<path d="M319.351 95.8053C319.336 95.8053 319.321 95.8026 319.306 95.7976L317.993 95.3253C317.925 95.3008 317.89 95.2257 317.914 95.1572C317.939 95.0892 318.015 95.0539 318.082 95.0783L319.266 95.504L322.162 86.096C322.183 86.0266 322.256 85.9876 322.327 86.0095C322.396 86.0309 322.435 86.1044 322.413 86.1735L319.476 95.7125C319.465 95.747 319.441 95.7752 319.409 95.7913C319.391 95.8008 319.371 95.8053 319.351 95.8053Z"   fill="#485F73" >
</path>
<path d="M352.541 60.8585C352.541 60.8585 353.76 59.9781 354.195 60.6874C355.302 62.4955 352.998 63.4725 351.822 63.4272L352.541 60.8585Z"   fill="#FED7C9" >
</path>
<path d="M348.049 42.8956C343.136 41.4007 337.793 43.8655 335.73 48.5679C335.052 50.1142 334.79 51.7259 334.883 53.2884C334.947 57.1178 335.026 60.2139 335.645 62.6796C336.273 65.1795 335.996 67.8197 334.755 70.0787L334.259 70.9822C333.788 71.8386 333.984 72.9079 334.724 73.5457C337.011 75.5159 338.943 75.8076 340.152 75.7104C340.927 75.6482 341.594 75.1413 341.868 74.4142L343.604 69.8094C349.896 71.3612 353.283 59.9461 354.521 56.6613L354.511 56.6597C354.562 56.5382 354.613 56.417 354.66 56.2926C356.732 50.7955 353.761 44.6339 348.049 42.8956Z"   fill="#FED7C9" >
</path>
<path d="M343.692 52.3742C342.07 53.1256 340.549 54.0724 339.032 55.0167C337.427 56.0162 335.753 57.0878 334.852 58.7502C333.744 56.9848 333.414 54.8494 333.24 52.7727C333.16 51.8099 333.108 50.8294 333.318 49.8861C333.615 48.5503 334.409 47.3872 335.186 46.2612C336.19 44.8079 337.253 43.3009 338.813 42.4717C339.846 41.9227 341.026 41.7142 342.192 41.6277C344.914 41.4266 347.721 41.8752 350.117 43.1817C352.513 44.4882 354.463 46.6959 355.195 49.3247C356.138 52.7108 355.035 56.2919 353.941 59.6321C354.125 58.1437 353.654 56.6609 353.189 55.2352C352.887 54.3077 352.575 53.361 351.985 52.5843C350.979 51.2603 350.542 51.3017 348.822 48.864C347.455 50.6618 345.72 51.4346 343.692 52.3742Z"   fill="#FF6E4B" >
</path>
<path d="M336.791 57.0704C336.753 56.7027 336.572 56.3651 336.3 56.1147C335.739 55.5992 334.684 54.8691 333.581 55.368C331.963 56.1005 333.153 60.1075 336.074 59.4399C336.074 59.4399 336.993 59.024 336.791 57.0704Z"   fill="#FED7C9" >
</path>
<path d="M351.342 61.2426C351.56 60.8003 351.378 60.2653 350.935 60.0478C350.493 59.8304 349.958 60.0125 349.741 60.455C349.523 60.8973 349.705 61.4321 350.148 61.6495C350.59 61.867 351.125 61.6848 351.342 61.2426Z"   fill="#0D3039" >
</path>
<path d="M343.203 58.6444C343.42 58.2021 343.237 57.667 342.795 57.4499C342.353 57.2321 341.818 57.4143 341.601 57.8565C341.383 58.2988 341.565 58.8339 342.007 59.0513C342.45 59.2687 342.985 59.0866 343.203 58.6444Z"   fill="#0D3039" >
</path>
<path d="M346.826 65.7032C346.826 65.7032 346.271 64.9452 345.799 64.9283C345.326 64.9114 344.921 65.3616 344.921 65.3616C344.921 65.3616 344.827 64.7554 344.3 64.5804C343.774 64.4059 342.162 64.3445 342.162 64.3445C342.162 64.3445 342.823 67.0287 344.528 67.1333C346.233 67.2374 346.779 65.7722 346.779 65.7722L346.826 65.7032Z"   fill="#DC4E4A" >
</path>
<path d="M345.053 66.1559C343.118 65.9686 341.777 64.0756 341.76 64.0503C341.721 63.9934 341.735 63.9148 341.792 63.8755C341.849 63.8363 341.928 63.8503 341.966 63.9069C342.054 64.0332 344.148 66.9822 346.868 65.5191C346.929 65.486 347.005 65.5089 347.038 65.57C347.071 65.6312 347.048 65.7074 346.987 65.7403C346.301 66.1095 345.648 66.2134 345.053 66.1559Z"   fill="#0D3039" >
</path>
<path d="M340.906 56.7559C340.808 56.7132 340.73 56.6292 340.698 56.5192C340.641 56.3221 340.755 56.1165 340.952 56.0596C341.011 56.0424 342.421 55.6569 343.911 56.3904C344.094 56.4808 344.17 56.7032 344.08 56.8872C343.99 57.0712 343.751 57.1423 343.583 57.0567C342.342 56.4465 341.17 56.7691 341.158 56.7728C341.071 56.7976 340.982 56.7897 340.906 56.7559Z"   fill="#DC4E4A" >
</path>
<path d="M349.705 59.0127C349.616 58.9529 349.555 58.8561 349.543 58.7425C349.522 58.5383 349.671 58.3564 349.875 58.3358C349.935 58.3298 351.38 58.1938 352.726 59.1914C352.891 59.3134 352.926 59.5459 352.804 59.7106C352.682 59.8756 352.443 59.9075 352.285 59.7884C351.172 58.9631 349.962 59.073 349.949 59.0741C349.859 59.0833 349.774 59.0593 349.705 59.0127Z"   fill="#DC4E4A" >
</path>
<path d="M345.688 62.7284C345.439 62.7284 345.149 62.671 344.812 62.5247C344.746 62.496 344.715 62.4188 344.744 62.3523C344.773 62.2859 344.851 62.2551 344.917 62.2843C346.081 62.7901 346.575 62.0961 346.683 61.9082C346.181 60.3395 346.902 58.7277 346.933 58.6592C346.963 58.5933 347.042 58.5646 347.107 58.5941C347.173 58.6244 347.202 58.7022 347.172 58.7681C347.165 58.7841 346.447 60.3927 346.95 61.8782C346.961 61.9101 346.958 61.9446 346.944 61.9749C346.94 61.9846 346.584 62.7284 345.688 62.7284Z"   fill="#FEC1A4" >
</path>
<path d="M330.925 124.175C330.925 124.175 331.874 124.785 333.085 124.838C334.297 124.89 337.877 124.565 338.456 124.649C339.035 124.733 341.912 125.846 342.469 125.713C343.025 125.58 339.72 123.585 339.72 123.585C339.72 123.585 342.779 124.89 343.171 124.417C343.563 123.943 340.404 122.258 340.404 122.258C340.404 122.258 343.511 123.206 343.721 122.679C343.932 122.153 340.931 121.205 340.931 121.205C340.931 121.205 343.774 121.626 343.932 121.205C344.09 120.784 339.983 119.257 338.245 119.362C336.508 119.468 331.127 120.254 331.127 120.254L330.925 124.175Z"   fill="#FED7C9" >
</path>
<path d="M347.453 192.464C346.991 194.212 346.569 195.629 346.435 196.302C346.057 198.191 362.869 206.691 364.38 205.18C365.501 204.059 362.569 200.653 359.823 197.349C358.279 198.321 354.363 199.354 347.453 192.464Z"   fill="#0D3039" >
</path>
<path d="M384.699 107.683L351.393 104.747L338.802 128.194L372.107 131.129L384.699 107.683Z"   fill="#0D3039" >
</path>
<rect x="323.17333984375" y="125.33154296875" width="22.383804321289062" height="1.4796169996261597" transform="rotate(5.03660254104941 323.17333984375 125.33154296875)"   fill="#0D3039" >
</rect>
<path d="M340.761 60.7127C340.254 60.4589 339.828 60.0656 339.53 59.5667C339.118 58.8769 338.999 58.068 339.196 57.2892C339.602 55.6817 341.24 54.7036 342.848 55.1089C344.455 55.5154 345.433 57.1526 345.028 58.7604C344.831 59.5395 344.344 60.195 343.654 60.607C342.965 61.0187 342.155 61.1375 341.377 60.9407C341.161 60.8866 340.954 60.8097 340.761 60.7127ZM343.376 55.5006C343.197 55.4107 343.005 55.3391 342.802 55.2879C341.294 54.9071 339.756 55.8253 339.375 57.3345C339.191 58.0654 339.302 58.8247 339.689 59.4721C340.075 60.1191 340.69 60.5769 341.421 60.762C342.153 60.9465 342.912 60.8352 343.559 60.4486C344.207 60.0619 344.665 59.4465 344.849 58.7153C345.179 57.4088 344.535 56.0805 343.376 55.5006Z"   fill="#0D3039" >
</path>
<path d="M349.19 63.2344C348.683 62.9809 348.258 62.5874 347.96 62.0885C347.548 61.3987 347.429 60.5901 347.626 59.8112C348.031 58.2037 349.67 57.2254 351.278 57.631C352.057 57.8268 352.712 58.3155 353.124 59.005C353.536 59.6947 353.654 60.5039 353.458 61.2825C353.261 62.0613 352.773 62.7171 352.084 63.129C351.394 63.541 350.585 63.6596 349.806 63.4627C349.591 63.4084 349.384 63.332 349.19 63.2344ZM351.811 58.024C351.628 57.9331 351.435 57.8611 351.232 57.8097C349.723 57.4291 348.186 58.3474 347.805 59.8566C347.424 61.3658 348.343 62.9042 349.851 63.284C350.583 63.4682 351.342 63.357 351.989 62.9706C352.636 62.5842 353.095 61.9685 353.279 61.2374C353.463 60.5063 353.352 59.7472 352.965 59.0999C352.686 58.6315 352.287 58.2625 351.811 58.024Z"   fill="#0D3039" >
</path>
<path d="M335.917 55.8068L335.982 55.634L339.396 56.9198L339.331 57.0925L335.917 55.8068Z"   fill="#0D3039" >
</path>
<path d="M344.845 59.1926L344.797 59.0147C346.831 58.4633 347.764 59.8539 347.773 59.8679L347.619 59.9689C347.583 59.9153 346.745 58.6782 344.845 59.1926Z"   fill="#0D3039" >
</path>
<path d="M362.419 117.664C362.591 117.011 363.197 116.604 363.772 116.756C364.348 116.907 364.676 117.559 364.504 118.212C364.333 118.866 363.727 119.272 363.151 119.121C362.575 118.97 362.247 118.318 362.419 117.664Z"   fill="#FFFFFF" >
</path>
<path d="M571.252 175.356L571.252 159.984L558.147 159.984C557.427 157.989 556.494 156.096 555.375 154.332L564.052 143.866L552.219 134.054L543.979 143.993C542.292 143.14 540.51 142.448 538.653 141.937L538.653 129.505L523.281 129.505L523.281 141.937C521.423 142.448 519.642 143.14 517.955 143.993L509.714 134.054L497.881 143.866L506.558 154.332C505.439 156.096 504.506 157.989 503.786 159.984L490.681 159.984L490.681 175.356L502.615 175.356C503.243 178.571 504.403 181.594 506 184.331L497.881 194.124L509.714 203.936L517.038 195.104C518.991 196.181 521.084 197.039 523.281 197.643L523.281 208.485L538.653 208.485L538.653 197.643C540.849 197.039 542.941 196.181 544.895 195.104L552.219 203.936L564.052 194.124L555.932 184.331C557.53 181.594 558.69 178.571 559.318 175.356L571.252 175.356ZM530.967 184.897C522.623 184.897 515.86 178.134 515.86 169.79C515.86 161.447 522.623 154.683 530.967 154.683C539.31 154.683 546.073 161.447 546.073 169.79C546.073 178.134 539.31 184.897 530.967 184.897Z"   fill="#2EC2D8" >
</path>
<path d="M538.324 408.243C538.324 408.243 538.644 417.7 538.724 417.832C538.804 417.964 538.098 419.183 538.098 419.183L535.143 419.862L532.361 418.742C532.361 418.742 532.177 409.944 531.826 408.572C531.474 407.2 538.324 408.243 538.324 408.243Z"   fill="#FEC1A4" >
</path>
<path d="M532.361 418.742C532.361 418.742 535.856 419.778 538.697 417.647C538.697 417.647 550.345 421.383 550.153 424.661C550.153 424.661 550.687 425.609 545.72 425.639C540.753 425.668 533.038 425.819 532.825 425.715C532.614 425.611 531.668 426.181 532.361 418.742Z"   fill="#0D3039" >
</path>
<path d="M497.557 408.243C497.557 408.243 497.237 417.7 497.156 417.832C497.076 417.964 497.782 419.183 497.782 419.183L500.738 419.862L503.519 418.742C503.519 418.742 503.703 409.944 504.055 408.572C504.407 407.2 497.557 408.243 497.557 408.243Z"   fill="#FEC1A4" >
</path>
<path d="M503.519 418.742C503.519 418.742 500.025 419.778 497.184 417.647C497.184 417.647 485.535 421.383 485.727 424.661C485.727 424.661 485.193 425.609 490.16 425.639C495.128 425.668 502.843 425.819 503.055 425.715C503.267 425.611 504.212 426.181 503.519 418.742Z"   fill="#0D3039" >
</path>
<path d="M504.08 306.451C504.08 306.451 497.493 328.559 494.89 410.849L506.528 413.342C506.528 413.342 520.159 340.981 521.154 340.078C522.149 339.177 529.449 413.342 529.449 413.342L542.058 413.342L542.722 312.964L504.08 306.451Z"   fill="#C43932" >
</path>
<path d="M549.004 245.881C549.004 245.881 556.566 227 550.475 201.693L545.389 203.098C545.389 203.098 548 226.197 538.761 241.663L549.004 245.881Z"   fill="#FEC1A4" >
</path>
<path d="M493.915 246.999C493.915 246.999 490.808 226.9 502.45 203.619L507.088 206.136C507.088 206.136 499.334 228.05 504.847 245.201L493.915 246.999Z"   fill="#FEC1A4" >
</path>
<path d="M545.804 204.363C545.804 204.363 542.438 198.492 541.818 196.646C541.198 194.8 539.226 193.471 540.112 192.773C541 192.074 543.5 194.865 543.5 194.865C543.5 194.865 544.087 190.945 544.084 189.714C544.081 188.482 544.635 186.278 545.537 186.206C546.438 186.133 546.038 192.051 546.038 192.051C546.038 192.051 546.865 187.101 547.682 186.857C548.499 186.613 548.374 193.065 548.374 193.065C548.374 193.065 548.996 187.743 549.41 187.368C549.823 186.994 550.319 187.507 550.556 189.445C550.793 191.384 550.535 193.424 550.535 193.424C550.535 193.424 551.253 189.716 551.494 189.302C551.736 188.887 552.371 188.492 552.418 191.4C552.466 194.308 551.627 200.463 549.887 203.425L545.804 204.363Z"   fill="#FEC1A4" >
</path>
<path d="M506.623 206.743C506.623 206.743 511.019 203.54 512.494 202.267C513.97 200.996 516.343 200.859 515.937 199.806C515.53 198.752 511.955 199.878 511.955 199.878C511.955 199.878 513.45 196.207 514.081 195.149C514.711 194.091 515.358 191.912 514.619 191.39C513.881 190.869 511.207 196.164 511.207 196.164C511.207 196.164 513.021 191.484 512.442 190.857C511.864 190.23 508.681 195.845 508.681 195.845C508.681 195.845 510.86 190.948 510.695 190.415C510.531 189.883 509.842 190.072 508.65 191.618C507.458 193.165 506.639 195.051 506.639 195.051C506.639 195.051 507.912 191.495 507.916 191.016C507.919 190.536 507.575 189.872 506.051 192.35C504.527 194.827 502.243 200.63 502.229 204.065L506.623 206.743Z"   fill="#FEC1A4" >
</path>
<path d="M545.803 319.223C545.803 319.223 542.375 274.101 543.279 269.28C544.183 264.46 553.222 245.348 553.222 245.348L537.856 237.673C537.856 237.673 531.821 256.024 523.088 254.819C514.356 253.614 509.235 250.601 506.523 240.055L489.35 249.369C489.35 249.369 500.196 261.775 499.895 275.922C499.594 290.069 500.196 318.173 500.196 318.173C500.196 318.173 533.451 327.357 545.803 319.223Z"   fill="#0D3039" >
</path>
<path d="M512.621 232.493L512.631 232.496C512.638 232.365 512.645 232.234 512.657 232.103C513.187 226.286 518.519 222.063 524.384 222.989C529.27 223.76 532.935 228.038 532.944 232.984C532.947 234.821 532.471 236.522 531.647 237.99C530.494 240.272 529.484 242.223 528.457 243.827C526.758 246.48 526.009 249.631 526.25 252.772L526.439 255.243C519.918 257.987 517.361 254.649 517.361 254.649L517.654 250.173C517.692 249.588 517.275 249.077 516.696 248.987L516.686 248.985C509.018 247.779 512.305 235.968 512.621 232.493Z"   fill="#FEC1A4" >
</path>
<path d="M528.302 240.546C528.495 240.233 528.803 240.01 529.155 239.904C529.88 239.685 531.14 239.49 531.91 240.415C533.04 241.771 530.239 244.839 527.916 242.976C527.916 242.976 527.274 242.205 528.302 240.546Z"   fill="#FEC1A4" >
</path>
<path d="M528.456 243.827L526.155 248.51L520.369 248.51L514.968 233.723C514.968 233.723 508.378 225.397 510.982 222.664C512.415 221.16 514.454 223.693 514.454 223.693C514.454 223.693 517.026 212.892 521.012 216.106C524.998 219.321 523.712 220.478 523.712 220.478C523.712 220.478 534.256 214.563 535.285 217.778C536.314 220.993 534.385 225.108 534.385 225.108C534.385 225.108 540.107 227.679 539.078 230.38C538.05 233.08 534.513 231.665 534.513 231.665C534.513 231.665 536.957 235.33 534.513 238.224C533.101 239.897 528.456 243.827 528.456 243.827Z"   fill="#0D3039" >
</path>
<path d="M515.443 235.852C515.636 235.54 515.944 235.316 516.295 235.21C517.02 234.992 518.281 234.797 519.051 235.721C520.181 237.078 517.38 240.146 515.057 238.282C515.057 238.282 514.415 237.512 515.443 235.852Z"   fill="#FEC1A4" >
</path>
<path d="M294.003 46.5724L294.003 40.1745L288.549 40.1745C288.25 39.3443 287.861 38.5562 287.395 37.8222L291.007 33.4662L286.082 29.3828L282.652 33.5189C281.95 33.1642 281.208 32.8763 280.436 32.6636L280.436 27.489L274.038 27.489L274.038 32.6636C273.265 32.8763 272.523 33.1642 271.821 33.5189L268.391 29.3828L263.466 33.4662L267.078 37.8222C266.612 38.5562 266.224 39.3443 265.924 40.1745L260.47 40.1745L260.47 46.5724L265.437 46.5724C265.698 47.9102 266.181 49.1688 266.846 50.3079L263.466 54.3837L268.391 58.4674L271.439 54.7915C272.253 55.2398 273.123 55.5967 274.038 55.8486L274.038 60.3609L280.436 60.3609L280.436 55.8486C281.35 55.5967 282.221 55.2398 283.034 54.7915L286.082 58.4674L291.007 54.3837L287.627 50.3079C288.293 49.1688 288.775 47.9102 289.036 46.5724L294.003 46.5724ZM277.237 50.5435C273.764 50.5435 270.949 47.7284 270.949 44.2559C270.949 40.7834 273.764 37.9685 277.237 37.9685C280.709 37.9685 283.524 40.7834 283.524 44.2559C283.524 47.7284 280.709 50.5435 277.237 50.5435Z"   fill="#EFF6F8" >
</path>
<path d="M258.638 94.1946L258.638 84.6842L250.531 84.6842C250.085 83.4498 249.508 82.2785 248.815 81.1873L254.184 74.7123L246.863 68.6418L241.765 74.7903C240.721 74.2629 239.618 73.8351 238.47 73.5188L238.47 65.8271L228.959 65.8271L228.959 73.5188C227.81 73.8351 226.708 74.2629 225.664 74.7903L220.566 68.6418L213.245 74.7123L218.614 81.1873C217.921 82.2785 217.344 83.4498 216.898 84.6842L208.79 84.6842L208.79 94.1946L216.174 94.1946C216.562 96.1835 217.28 98.0542 218.268 99.7475L213.245 105.806L220.566 111.877L225.097 106.412C226.305 107.079 227.6 107.609 228.959 107.984L228.959 114.691L238.47 114.691L238.47 107.984C239.829 107.609 241.123 107.079 242.332 106.412L246.863 111.877L254.184 105.806L249.161 99.7475C250.149 98.0542 250.867 96.1835 251.255 94.1946L258.638 94.1946ZM233.714 100.098C228.552 100.098 224.368 95.9131 224.368 90.7511C224.368 85.5892 228.552 81.4045 233.714 81.4045C238.876 81.4045 243.061 85.5892 243.061 90.7511C243.061 95.9131 238.876 100.098 233.714 100.098Z"   fill="#2EC2D8" >
</path>
<path d="M154.582 189.27C140.791 189.27 129.61 200.45 129.61 214.241C129.61 228.032 140.791 239.212 154.582 239.212C168.373 239.212 179.553 228.032 179.553 214.241C179.553 200.45 168.373 189.27 154.582 189.27ZM155.149 232.727C144.94 232.727 136.664 224.45 136.664 214.241C136.664 204.032 144.94 195.756 155.149 195.756C165.358 195.756 173.635 204.032 173.635 214.241C173.635 224.45 165.358 232.727 155.149 232.727Z"   fill="#2EC2D8" >
</path>
<rect x="151.1767578125" y="181.81103515625" width="6.810251712799072" height="9.728948593139648"   fill="#2EC2D8" >
</rect>
<rect x="164.66162109375" y="182.44873046875" width="6.810282230377197" height="9.729053497314453" transform="rotate(25.02536790441294 164.66162109375 182.44873046875)"   fill="#2EC2D8" >
</rect>
<rect x="176.1416015625" y="188.681640625" width="6.810432434082031" height="9.72900390625" transform="rotate(48.351547694905385 176.1416015625 188.681640625)"   fill="#2EC2D8" >
</rect>
<rect x="183.376953125" y="198.146728515625" width="6.810401439666748" height="9.729253768920898" transform="rotate(66.39568562428957 183.376953125 198.146728515625)"   fill="#2EC2D8" >
</rect>
<rect x="132.1240234375" y="210.998291015625" width="6.810488224029541" height="9.728949546813965" transform="rotate(90 132.1240234375 210.998291015625)"   fill="#2EC2D8" >
</rect>
<rect x="186.60693359375" y="210.998291015625" width="6.810488224029541" height="9.729246139526367" transform="rotate(90 186.60693359375 210.998291015625)"   fill="#2EC2D8" >
</rect>
<rect x="148.45556640625" y="191.264404296875" width="6.810287952423096" height="9.72905158996582" transform="rotate(154.97373525125965 148.45556640625 191.264404296875)"   fill="#2EC2D8" >
</rect>
<rect x="140.1298828125" y="195.14697265625" width="6.8103437423706055" height="9.729065895080566" transform="rotate(131.64679773494888 140.1298828125 195.14697265625)"   fill="#2EC2D8" >
</rect>
<rect x="134.5400390625" y="202.04248046875" width="6.810452461242676" height="9.729114532470703" transform="rotate(113.6045177451313 134.5400390625 202.04248046875)"   fill="#2EC2D8" >
</rect>
<rect x="151.2578125" y="237.2666015625" width="6.8105149269104" height="9.729186058044434"   fill="#2EC2D8" >
</rect>
<rect x="160.626953125" y="237.542236328125" width="6.8104166984558105" height="9.72898006439209" transform="rotate(-25.023337368075392 160.626953125 237.542236328125)"   fill="#2EC2D8" >
</rect>
<rect x="168.953125" y="233.659912109375" width="6.810416221618652" height="9.729182243347168" transform="rotate(-48.353536071920715 168.953125 233.659912109375)"   fill="#2EC2D8" >
</rect>
<rect x="174.54296875" y="226.76416015625" width="6.810425758361816" height="9.729129791259766" transform="rotate(-66.39511521166061 174.54296875 226.76416015625)"   fill="#2EC2D8" >
</rect>
<rect x="144.42138671875" y="246.35791015625" width="6.810404300689697" height="9.728974342346191" transform="rotate(-154.97666263192463 144.42138671875 246.35791015625)"   fill="#2EC2D8" >
</rect>
<rect x="132.94091796875" y="240.125244140625" width="6.810502529144287" height="9.729083061218262" transform="rotate(-131.64845230509462 132.94091796875 240.125244140625)"   fill="#2EC2D8" >
</rect>
<rect x="125.7060546875" y="230.659912109375" width="6.810402870178223" height="9.72900676727295" transform="rotate(-113.6054552009771 125.7060546875 230.659912109375)"   fill="#2EC2D8" >
</rect>
<path d="M419.976 82.9861C410.072 82.9861 402.043 91.0146 402.043 100.918C402.043 110.822 410.072 118.85 419.976 118.85C429.879 118.85 437.908 110.822 437.908 100.918C437.908 91.0146 429.879 82.9861 419.976 82.9861ZM420.383 114.193C413.052 114.193 407.109 108.249 407.109 100.918C407.109 93.5871 413.052 87.6436 420.383 87.6436C427.714 87.6436 433.658 93.5871 433.658 100.918C433.658 108.249 427.714 114.193 420.383 114.193Z"   fill="#B9E2EF" >
</path>
<rect x="417.53076171875" y="77.6298828125" width="4.890533924102783" height="6.986472129821777"   fill="#B9E2EF" >
</rect>
<rect x="427.21435546875" y="78.087646484375" width="4.8905487060546875" height="6.986542701721191" transform="rotate(25.025332728175226 427.21435546875 78.087646484375)"   fill="#B9E2EF" >
</rect>
<rect x="435.4580078125" y="82.5634765625" width="4.890643119812012" height="6.986507892608643" transform="rotate(48.35181854106042 435.4580078125 82.5634765625)"   fill="#B9E2EF" >
</rect>
<rect x="440.654296875" y="89.360595703125" width="4.890594482421875" height="6.986690044403076" transform="rotate(66.39573764015549 440.654296875 89.360595703125)"   fill="#B9E2EF" >
</rect>
<rect x="403.8486328125" y="98.58935546875" width="4.890686511993408" height="6.98646879196167" transform="rotate(90 403.8486328125 98.58935546875)"   fill="#B9E2EF" >
</rect>
<rect x="442.9736328125" y="98.58935546875" width="4.890686511993408" height="6.9866838455200195" transform="rotate(90 442.9736328125 98.58935546875)"   fill="#B9E2EF" >
</rect>
<rect x="415.57666015625" y="84.418212890625" width="4.890537261962891" height="6.986537456512451" transform="rotate(154.973542760753 415.57666015625 84.418212890625)"   fill="#B9E2EF" >
</rect>
<rect x="409.59765625" y="87.206298828125" width="4.890600204467773" height="6.986557483673096" transform="rotate(131.64675661176557 409.59765625 87.206298828125)"   fill="#B9E2EF" >
</rect>
<rect x="405.58349609375" y="92.158203125" width="4.890647888183594" height="6.986569881439209" transform="rotate(113.60471642052704 405.58349609375 92.158203125)"   fill="#B9E2EF" >
</rect>
<rect x="417.5888671875" y="117.453125" width="4.890713214874268" height="6.986656188964844"   fill="#B9E2EF" >
</rect>
<rect x="424.31689453125" y="117.65087890625" width="4.89063024520874" height="6.986495018005371" transform="rotate(-25.023477970487093 424.31689453125 117.65087890625)"   fill="#B9E2EF" >
</rect>
<rect x="430.2958984375" y="114.863037109375" width="4.890643119812012" height="6.986627578735352" transform="rotate(-48.35345382555432 430.2958984375 114.863037109375)"   fill="#B9E2EF" >
</rect>
<rect x="434.31005859375" y="109.9111328125" width="4.890649795532227" height="6.98659610748291" transform="rotate(-66.39493335331227 434.31005859375 109.9111328125)"   fill="#B9E2EF" >
</rect>
<rect x="412.6796875" y="123.981689453125" width="4.890646457672119" height="6.986486434936523" transform="rotate(-154.9766763518938 412.6796875 123.981689453125)"   fill="#B9E2EF" >
</rect>
<rect x="404.435546875" y="119.505859375" width="4.890693187713623" height="6.9865498542785645" transform="rotate(-131.64839189626255 404.435546875 119.505859375)"   fill="#B9E2EF" >
</rect>
<rect x="399.23974609375" y="112.708740234375" width="4.890621662139893" height="6.986514568328857" transform="rotate(-113.60540005578122 399.23974609375 112.708740234375)"   fill="#B9E2EF" >
</rect>
</svg>
